<mxfile host="65bd71144e">
    <diagram name="Page-1" id="hgrQ8tGY9hdoFmtWgXwL">
        <mxGraphModel dx="1472" dy="386" grid="1" gridSize="10" guides="1" tooltips="1" connect="1" arrows="1" fold="1" page="1" pageScale="1" pageWidth="827" pageHeight="1169" math="0" shadow="0">
            <root>
                <mxCell id="0"/>
                <mxCell id="1" parent="0"/>
                <mxCell id="hUjVV0NGcqdqixy6RG3n-2" value="amami" style="rounded=0;whiteSpace=wrap;html=1;fillColor=#FF5C33;fontColor=#F7F7F7;fontSize=20;fontStyle=1" parent="1" vertex="1">
                    <mxGeometry x="280" width="280" height="30" as="geometry"/>
                </mxCell>
                <mxCell id="hUjVV0NGcqdqixy6RG3n-7" value="" style="curved=1;endArrow=classic;html=1;rounded=0;exitX=0.25;exitY=1;exitDx=0;exitDy=0;entryX=0.5;entryY=0;entryDx=0;entryDy=0;" parent="1" source="hUjVV0NGcqdqixy6RG3n-2" target="hUjVV0NGcqdqixy6RG3n-81" edge="1">
                    <mxGeometry width="50" height="50" relative="1" as="geometry">
                        <mxPoint x="200" y="150" as="sourcePoint"/>
                        <mxPoint x="160" y="80" as="targetPoint"/>
                        <Array as="points">
                            <mxPoint x="270" y="40"/>
                        </Array>
                    </mxGeometry>
                </mxCell>
                <mxCell id="hUjVV0NGcqdqixy6RG3n-81" value="&lt;span style=&quot;text-wrap: wrap; font-size: 16px;&quot;&gt;um2nc&lt;/span&gt;" style="swimlane;childLayout=stackLayout;resizeParent=1;resizeParentMax=0;horizontal=1;startSize=20;horizontalStack=0;html=1;fillColor=none;fontSize=16;" parent="1" vertex="1">
                    <mxGeometry x="-60" y="130" width="350" height="1410" as="geometry">
                        <mxRectangle x="200" y="130" width="60" height="30" as="alternateBounds"/>
                    </mxGeometry>
                </mxCell>
                <mxCell id="hUjVV0NGcqdqixy6RG3n-179" value="Options" style="swimlane;startSize=20;horizontal=0;html=1;" parent="hUjVV0NGcqdqixy6RG3n-81" vertex="1">
                    <mxGeometry y="20" width="350" height="210" as="geometry"/>
                </mxCell>
                <mxCell id="hUjVV0NGcqdqixy6RG3n-216" value="" style="shape=tableRow;horizontal=0;startSize=0;swimlaneHead=0;swimlaneBody=0;strokeColor=inherit;top=0;left=0;bottom=0;right=0;collapsible=0;dropTarget=0;fillColor=none;points=[[0,0.5],[1,0.5]];portConstraint=eastwest;fontSize=16;" parent="hUjVV0NGcqdqixy6RG3n-179" vertex="1">
                    <mxGeometry x="230" y="200" width="180" height="40" as="geometry"/>
                </mxCell>
                <mxCell id="hUjVV0NGcqdqixy6RG3n-188" value="Options" style="shape=table;startSize=30;container=1;collapsible=0;childLayout=tableLayout;strokeColor=#9673a6;fontSize=16;fillColor=#e1d5e7;" parent="hUjVV0NGcqdqixy6RG3n-179" vertex="1">
                    <mxGeometry x="65" y="10" width="220" height="190" as="geometry"/>
                </mxCell>
                <mxCell id="hUjVV0NGcqdqixy6RG3n-189" value="" style="shape=tableRow;horizontal=0;startSize=0;swimlaneHead=0;swimlaneBody=0;strokeColor=inherit;top=0;left=0;bottom=0;right=0;collapsible=0;dropTarget=0;fillColor=none;points=[[0,0.5],[1,0.5]];portConstraint=eastwest;fontSize=16;" parent="hUjVV0NGcqdqixy6RG3n-188" vertex="1">
                    <mxGeometry y="30" width="220" height="40" as="geometry"/>
                </mxCell>
                <mxCell id="hUjVV0NGcqdqixy6RG3n-190" value="&lt;span style=&quot;font-size: 16px; text-align: left;&quot;&gt;--input&lt;/span&gt;" style="shape=partialRectangle;html=1;whiteSpace=wrap;connectable=0;strokeColor=inherit;overflow=hidden;fillColor=none;top=0;left=0;bottom=0;right=0;pointerEvents=1;fontSize=16;" parent="hUjVV0NGcqdqixy6RG3n-189" vertex="1">
                    <mxGeometry width="73" height="40" as="geometry">
                        <mxRectangle width="73" height="40" as="alternateBounds"/>
                    </mxGeometry>
                </mxCell>
                <mxCell id="hUjVV0NGcqdqixy6RG3n-191" value="&lt;span style=&quot;font-size: 16px; text-align: left;&quot;&gt;--output&lt;/span&gt;" style="shape=partialRectangle;html=1;whiteSpace=wrap;connectable=0;strokeColor=inherit;overflow=hidden;fillColor=none;top=0;left=0;bottom=0;right=0;pointerEvents=1;fontSize=16;" parent="hUjVV0NGcqdqixy6RG3n-189" vertex="1">
                    <mxGeometry x="73" width="74" height="40" as="geometry">
                        <mxRectangle width="74" height="40" as="alternateBounds"/>
                    </mxGeometry>
                </mxCell>
                <mxCell id="hUjVV0NGcqdqixy6RG3n-192" value="&lt;span style=&quot;font-size: 16px; text-align: left;&quot;&gt;--format&lt;/span&gt;" style="shape=partialRectangle;html=1;whiteSpace=wrap;connectable=0;strokeColor=inherit;overflow=hidden;fillColor=none;top=0;left=0;bottom=0;right=0;pointerEvents=1;fontSize=16;" parent="hUjVV0NGcqdqixy6RG3n-189" vertex="1">
                    <mxGeometry x="147" width="73" height="40" as="geometry">
                        <mxRectangle width="73" height="40" as="alternateBounds"/>
                    </mxGeometry>
                </mxCell>
                <mxCell id="hUjVV0NGcqdqixy6RG3n-193" value="" style="shape=tableRow;horizontal=0;startSize=0;swimlaneHead=0;swimlaneBody=0;strokeColor=inherit;top=0;left=0;bottom=0;right=0;collapsible=0;dropTarget=0;fillColor=none;points=[[0,0.5],[1,0.5]];portConstraint=eastwest;fontSize=16;" parent="hUjVV0NGcqdqixy6RG3n-188" vertex="1">
                    <mxGeometry y="70" width="220" height="40" as="geometry"/>
                </mxCell>
                <mxCell id="hUjVV0NGcqdqixy6RG3n-194" value="&lt;span style=&quot;text-align: left;&quot;&gt;&lt;font style=&quot;font-size: 10px;&quot;&gt;--compression&lt;/font&gt;&lt;/span&gt;" style="shape=partialRectangle;html=1;whiteSpace=wrap;connectable=0;strokeColor=inherit;overflow=hidden;fillColor=none;top=0;left=0;bottom=0;right=0;pointerEvents=1;fontSize=16;" parent="hUjVV0NGcqdqixy6RG3n-193" vertex="1">
                    <mxGeometry width="73" height="40" as="geometry">
                        <mxRectangle width="73" height="40" as="alternateBounds"/>
                    </mxGeometry>
                </mxCell>
                <mxCell id="hUjVV0NGcqdqixy6RG3n-195" value="&lt;span style=&quot;font-size: 16px;&quot;&gt;--64bit&lt;/span&gt;" style="shape=partialRectangle;html=1;whiteSpace=wrap;connectable=0;strokeColor=inherit;overflow=hidden;fillColor=none;top=0;left=0;bottom=0;right=0;pointerEvents=1;fontSize=16;align=center;" parent="hUjVV0NGcqdqixy6RG3n-193" vertex="1">
                    <mxGeometry x="73" width="74" height="40" as="geometry">
                        <mxRectangle width="74" height="40" as="alternateBounds"/>
                    </mxGeometry>
                </mxCell>
                <mxCell id="hUjVV0NGcqdqixy6RG3n-196" value="&lt;span style=&quot;font-size: 16px; text-align: left;&quot;&gt;--nohist&lt;/span&gt;" style="shape=partialRectangle;html=1;whiteSpace=wrap;connectable=0;strokeColor=inherit;overflow=hidden;fillColor=none;top=0;left=0;bottom=0;right=0;pointerEvents=1;fontSize=16;" parent="hUjVV0NGcqdqixy6RG3n-193" vertex="1">
                    <mxGeometry x="147" width="73" height="40" as="geometry">
                        <mxRectangle width="73" height="40" as="alternateBounds"/>
                    </mxGeometry>
                </mxCell>
                <mxCell id="hUjVV0NGcqdqixy6RG3n-197" value="" style="shape=tableRow;horizontal=0;startSize=0;swimlaneHead=0;swimlaneBody=0;strokeColor=inherit;top=0;left=0;bottom=0;right=0;collapsible=0;dropTarget=0;fillColor=none;points=[[0,0.5],[1,0.5]];portConstraint=eastwest;fontSize=16;" parent="hUjVV0NGcqdqixy6RG3n-188" vertex="1">
                    <mxGeometry y="110" width="220" height="40" as="geometry"/>
                </mxCell>
                <mxCell id="hUjVV0NGcqdqixy6RG3n-198" value="&lt;span style=&quot;font-size: 16px; text-align: left;&quot;&gt;--simple&lt;/span&gt;" style="shape=partialRectangle;html=1;whiteSpace=wrap;connectable=0;strokeColor=inherit;overflow=hidden;fillColor=none;top=0;left=0;bottom=0;right=0;pointerEvents=1;fontSize=16;" parent="hUjVV0NGcqdqixy6RG3n-197" vertex="1">
                    <mxGeometry width="73" height="40" as="geometry">
                        <mxRectangle width="73" height="40" as="alternateBounds"/>
                    </mxGeometry>
                </mxCell>
                <mxCell id="hUjVV0NGcqdqixy6RG3n-199" value="&lt;span style=&quot;text-align: left;&quot;&gt;&lt;font style=&quot;font-size: 15px;&quot;&gt;--nomask&lt;/font&gt;&lt;/span&gt;" style="shape=partialRectangle;html=1;whiteSpace=wrap;connectable=0;strokeColor=inherit;overflow=hidden;fillColor=none;top=0;left=0;bottom=0;right=0;pointerEvents=1;fontSize=16;" parent="hUjVV0NGcqdqixy6RG3n-197" vertex="1">
                    <mxGeometry x="73" width="74" height="40" as="geometry">
                        <mxRectangle width="74" height="40" as="alternateBounds"/>
                    </mxGeometry>
                </mxCell>
                <mxCell id="hUjVV0NGcqdqixy6RG3n-200" value="&lt;span style=&quot;font-size: 16px; text-align: left;&quot;&gt;--hcrit&lt;/span&gt;" style="shape=partialRectangle;html=1;whiteSpace=wrap;connectable=0;strokeColor=inherit;overflow=hidden;fillColor=none;top=0;left=0;bottom=0;right=0;pointerEvents=1;fontSize=16;" parent="hUjVV0NGcqdqixy6RG3n-197" vertex="1">
                    <mxGeometry x="147" width="73" height="40" as="geometry">
                        <mxRectangle width="73" height="40" as="alternateBounds"/>
                    </mxGeometry>
                </mxCell>
                <mxCell id="hUjVV0NGcqdqixy6RG3n-220" style="shape=tableRow;horizontal=0;startSize=0;swimlaneHead=0;swimlaneBody=0;strokeColor=inherit;top=0;left=0;bottom=0;right=0;collapsible=0;dropTarget=0;fillColor=none;points=[[0,0.5],[1,0.5]];portConstraint=eastwest;fontSize=16;" parent="hUjVV0NGcqdqixy6RG3n-188" vertex="1">
                    <mxGeometry y="150" width="220" height="40" as="geometry"/>
                </mxCell>
                <mxCell id="hUjVV0NGcqdqixy6RG3n-221" value="&lt;span style=&quot;font-size: 16px; text-align: left;&quot;&gt;--include&lt;/span&gt;" style="shape=partialRectangle;html=1;whiteSpace=wrap;connectable=0;strokeColor=inherit;overflow=hidden;fillColor=none;top=0;left=0;bottom=0;right=0;pointerEvents=1;fontSize=16;" parent="hUjVV0NGcqdqixy6RG3n-220" vertex="1">
                    <mxGeometry width="73" height="40" as="geometry">
                        <mxRectangle width="73" height="40" as="alternateBounds"/>
                    </mxGeometry>
                </mxCell>
                <mxCell id="hUjVV0NGcqdqixy6RG3n-222" value="&lt;span style=&quot;font-size: 16px; text-align: left;&quot;&gt;--exclude&lt;/span&gt;" style="shape=partialRectangle;html=1;whiteSpace=wrap;connectable=0;strokeColor=inherit;overflow=hidden;fillColor=none;top=0;left=0;bottom=0;right=0;pointerEvents=1;fontSize=16;" parent="hUjVV0NGcqdqixy6RG3n-220" vertex="1">
                    <mxGeometry x="73" width="74" height="40" as="geometry">
                        <mxRectangle width="74" height="40" as="alternateBounds"/>
                    </mxGeometry>
                </mxCell>
                <mxCell id="hUjVV0NGcqdqixy6RG3n-223" value="" style="shape=partialRectangle;html=1;whiteSpace=wrap;connectable=0;strokeColor=inherit;overflow=hidden;fillColor=none;top=0;left=0;bottom=0;right=0;pointerEvents=1;fontSize=16;" parent="hUjVV0NGcqdqixy6RG3n-220" vertex="1">
                    <mxGeometry x="147" width="73" height="40" as="geometry">
                        <mxRectangle width="73" height="40" as="alternateBounds"/>
                    </mxGeometry>
                </mxCell>
                <mxCell id="hUjVV0NGcqdqixy6RG3n-82" value="Read UM input" style="swimlane;startSize=20;horizontal=0;html=1;" parent="hUjVV0NGcqdqixy6RG3n-81" vertex="1">
                    <mxGeometry y="230" width="350" height="230" as="geometry"/>
                </mxCell>
                <mxCell id="hUjVV0NGcqdqixy6RG3n-44" value="Get and check netCDF output format" style="rounded=1;whiteSpace=wrap;html=1;fontStyle=0;startSize=30;" parent="hUjVV0NGcqdqixy6RG3n-82" vertex="1">
                    <mxGeometry x="190" y="137" width="135" height="40" as="geometry"/>
                </mxCell>
                <mxCell id="hUjVV0NGcqdqixy6RG3n-46" value="&lt;span style=&quot;font-family: Helvetica; font-size: 12px; font-style: normal; font-variant-ligatures: normal; font-variant-caps: normal; font-weight: 400; letter-spacing: normal; orphans: 2; text-align: center; text-indent: 0px; text-transform: none; widows: 2; word-spacing: 0px; -webkit-text-stroke-width: 0px; white-space: normal; text-decoration-thickness: initial; text-decoration-style: initial; text-decoration-color: initial; float: none; display: inline !important;&quot;&gt;Read UM input file&lt;/span&gt;" style="rounded=1;whiteSpace=wrap;html=1;fontStyle=0;startSize=30;fontColor=#FFFFFF;" parent="hUjVV0NGcqdqixy6RG3n-82" vertex="1">
                    <mxGeometry x="201.5" y="197" width="112.5" height="20" as="geometry"/>
                </mxCell>
                <mxCell id="hUjVV0NGcqdqixy6RG3n-47" value="" style="edgeStyle=orthogonalEdgeStyle;rounded=0;orthogonalLoop=1;jettySize=auto;html=1;" parent="hUjVV0NGcqdqixy6RG3n-82" source="hUjVV0NGcqdqixy6RG3n-44" target="hUjVV0NGcqdqixy6RG3n-46" edge="1">
                    <mxGeometry relative="1" as="geometry"/>
                </mxCell>
                <mxCell id="hUjVV0NGcqdqixy6RG3n-304" value="" style="edgeStyle=orthogonalEdgeStyle;rounded=0;orthogonalLoop=1;jettySize=auto;html=1;" parent="hUjVV0NGcqdqixy6RG3n-82" source="hUjVV0NGcqdqixy6RG3n-303" target="hUjVV0NGcqdqixy6RG3n-44" edge="1">
                    <mxGeometry relative="1" as="geometry"/>
                </mxCell>
                <mxCell id="hUjVV0NGcqdqixy6RG3n-303" value="--format" style="strokeWidth=1;html=1;shape=mxgraph.flowchart.terminator;whiteSpace=wrap;spacing=2;fontSize=12;labelBackgroundColor=none;fillStyle=solid;fillColor=#cdeb8b;strokeColor=#36393d;" parent="hUjVV0NGcqdqixy6RG3n-82" vertex="1">
                    <mxGeometry x="98.32999999999998" y="142" width="60" height="30" as="geometry"/>
                </mxCell>
                <mxCell id="I_a6mHRPED68WXZHo2h1-104" value="" style="edgeStyle=orthogonalEdgeStyle;rounded=0;orthogonalLoop=1;jettySize=auto;html=1;" parent="hUjVV0NGcqdqixy6RG3n-82" source="I_a6mHRPED68WXZHo2h1-78" target="I_a6mHRPED68WXZHo2h1-99" edge="1">
                    <mxGeometry relative="1" as="geometry"/>
                </mxCell>
                <mxCell id="I_a6mHRPED68WXZHo2h1-78" value="Get and check&lt;div&gt;input path&lt;/div&gt;" style="rounded=1;whiteSpace=wrap;html=1;fontStyle=0;startSize=30;" parent="hUjVV0NGcqdqixy6RG3n-82" vertex="1">
                    <mxGeometry x="198.75" y="6.5" width="120" height="37.5" as="geometry"/>
                </mxCell>
                <mxCell id="I_a6mHRPED68WXZHo2h1-79" value="--input" style="strokeWidth=1;html=1;shape=mxgraph.flowchart.terminator;whiteSpace=wrap;spacing=2;fontSize=12;labelBackgroundColor=none;fillStyle=solid;fillColor=#cdeb8b;strokeColor=#36393d;" parent="hUjVV0NGcqdqixy6RG3n-82" vertex="1">
                    <mxGeometry x="98.32999999999998" y="10" width="60" height="30" as="geometry"/>
                </mxCell>
                <mxCell id="I_a6mHRPED68WXZHo2h1-80" value="" style="edgeStyle=orthogonalEdgeStyle;rounded=0;orthogonalLoop=1;jettySize=auto;html=1;" parent="hUjVV0NGcqdqixy6RG3n-82" source="I_a6mHRPED68WXZHo2h1-79" target="I_a6mHRPED68WXZHo2h1-78" edge="1">
                    <mxGeometry relative="1" as="geometry"/>
                </mxCell>
                <mxCell id="I_a6mHRPED68WXZHo2h1-103" value="" style="edgeStyle=orthogonalEdgeStyle;rounded=0;orthogonalLoop=1;jettySize=auto;html=1;entryX=0.509;entryY=-0.005;entryDx=0;entryDy=0;entryPerimeter=0;" parent="hUjVV0NGcqdqixy6RG3n-82" source="I_a6mHRPED68WXZHo2h1-99" target="hUjVV0NGcqdqixy6RG3n-44" edge="1">
                    <mxGeometry relative="1" as="geometry">
                        <mxPoint x="320" y="117" as="targetPoint"/>
                    </mxGeometry>
                </mxCell>
                <mxCell id="I_a6mHRPED68WXZHo2h1-99" value="Get and check&lt;div&gt;output path&lt;/div&gt;" style="rounded=1;whiteSpace=wrap;html=1;fontStyle=0;startSize=30;" parent="hUjVV0NGcqdqixy6RG3n-82" vertex="1">
                    <mxGeometry x="198.75" y="71" width="120" height="37.5" as="geometry"/>
                </mxCell>
                <mxCell id="I_a6mHRPED68WXZHo2h1-100" value="--output" style="strokeWidth=1;html=1;shape=mxgraph.flowchart.terminator;whiteSpace=wrap;spacing=2;fontSize=12;labelBackgroundColor=none;fillStyle=solid;fillColor=#cdeb8b;strokeColor=#36393d;" parent="hUjVV0NGcqdqixy6RG3n-82" vertex="1">
                    <mxGeometry x="98.32999999999998" y="74.5" width="60" height="30" as="geometry"/>
                </mxCell>
                <mxCell id="I_a6mHRPED68WXZHo2h1-101" value="" style="edgeStyle=orthogonalEdgeStyle;rounded=0;orthogonalLoop=1;jettySize=auto;html=1;" parent="hUjVV0NGcqdqixy6RG3n-82" source="I_a6mHRPED68WXZHo2h1-100" target="I_a6mHRPED68WXZHo2h1-99" edge="1">
                    <mxGeometry relative="1" as="geometry"/>
                </mxCell>
                <mxCell id="hUjVV0NGcqdqixy6RG3n-83" value="Check parameters" style="swimlane;startSize=20;horizontal=0;html=1;" parent="hUjVV0NGcqdqixy6RG3n-81" vertex="1">
                    <mxGeometry y="460" width="350" height="240" as="geometry"/>
                </mxCell>
                <mxCell id="hUjVV0NGcqdqixy6RG3n-53" value="Arrange fields in correct order" style="rounded=1;whiteSpace=wrap;html=1;fontStyle=0;startSize=30;" parent="hUjVV0NGcqdqixy6RG3n-83" vertex="1">
                    <mxGeometry x="207.5" y="20" width="100" height="30" as="geometry"/>
                </mxCell>
                <mxCell id="hUjVV0NGcqdqixy6RG3n-70" value="" style="edgeStyle=orthogonalEdgeStyle;rounded=0;orthogonalLoop=1;jettySize=auto;html=1;entryX=0.502;entryY=0.031;entryDx=0;entryDy=0;entryPerimeter=0;exitX=0.5;exitY=1;exitDx=0;exitDy=0;" parent="hUjVV0NGcqdqixy6RG3n-83" source="hUjVV0NGcqdqixy6RG3n-53" target="hUjVV0NGcqdqixy6RG3n-307" edge="1">
                    <mxGeometry relative="1" as="geometry">
                        <mxPoint x="257.48571428571427" y="70" as="targetPoint"/>
                        <Array as="points">
                            <mxPoint x="258" y="60"/>
                            <mxPoint x="180" y="60"/>
                            <mxPoint x="180" y="72"/>
                        </Array>
                    </mxGeometry>
                </mxCell>
                <mxCell id="hUjVV0NGcqdqixy6RG3n-73" value="Get z_rho and z_theta" style="rounded=1;whiteSpace=wrap;html=1;fontStyle=0;startSize=30;" parent="hUjVV0NGcqdqixy6RG3n-83" vertex="1">
                    <mxGeometry x="207.5" y="180" width="100" height="40" as="geometry"/>
                </mxCell>
                <mxCell id="hUjVV0NGcqdqixy6RG3n-310" value="" style="edgeStyle=orthogonalEdgeStyle;rounded=0;orthogonalLoop=1;jettySize=auto;html=1;entryX=0.5;entryY=0;entryDx=0;entryDy=0;exitX=0.99;exitY=0.505;exitDx=0;exitDy=0;exitPerimeter=0;strokeColor=#FF5C33;" parent="hUjVV0NGcqdqixy6RG3n-83" source="hUjVV0NGcqdqixy6RG3n-307" target="hUjVV0NGcqdqixy6RG3n-73" edge="1">
                    <mxGeometry relative="1" as="geometry"/>
                </mxCell>
                <mxCell id="hUjVV0NGcqdqixy6RG3n-314" value="" style="edgeStyle=orthogonalEdgeStyle;rounded=0;orthogonalLoop=1;jettySize=auto;html=1;entryX=0.25;entryY=0;entryDx=0;entryDy=0;exitX=0.001;exitY=0.495;exitDx=0;exitDy=0;exitPerimeter=0;strokeColor=#00CC00;" parent="hUjVV0NGcqdqixy6RG3n-83" source="hUjVV0NGcqdqixy6RG3n-307" target="hUjVV0NGcqdqixy6RG3n-308" edge="1">
                    <mxGeometry relative="1" as="geometry">
                        <mxPoint x="15" y="75" as="targetPoint"/>
                    </mxGeometry>
                </mxCell>
                <mxCell id="hUjVV0NGcqdqixy6RG3n-307" value="NOT&lt;br&gt;--nomask" style="html=1;whiteSpace=wrap;aspect=fixed;shape=isoRectangle;fillColor=#ffcc99;strokeColor=#36393d;" parent="hUjVV0NGcqdqixy6RG3n-83" vertex="1">
                    <mxGeometry x="130" y="75" width="100" height="60" as="geometry"/>
                </mxCell>
                <mxCell id="hUjVV0NGcqdqixy6RG3n-311" value="" style="edgeStyle=orthogonalEdgeStyle;rounded=0;orthogonalLoop=1;jettySize=auto;html=1;entryX=0;entryY=0.5;entryDx=0;entryDy=0;exitX=0.5;exitY=1;exitDx=0;exitDy=0;" parent="hUjVV0NGcqdqixy6RG3n-83" source="hUjVV0NGcqdqixy6RG3n-308" target="hUjVV0NGcqdqixy6RG3n-73" edge="1">
                    <mxGeometry relative="1" as="geometry">
                        <Array as="points">
                            <mxPoint x="85" y="200"/>
                        </Array>
                    </mxGeometry>
                </mxCell>
                <mxCell id="hUjVV0NGcqdqixy6RG3n-308" value="Get heaviside fields for pressure levels" style="rounded=1;whiteSpace=wrap;html=1;fontStyle=0;startSize=30;" parent="hUjVV0NGcqdqixy6RG3n-83" vertex="1">
                    <mxGeometry x="30" y="130" width="110" height="40" as="geometry"/>
                </mxCell>
                <mxCell id="hUjVV0NGcqdqixy6RG3n-84" value="Write netCDF output" style="swimlane;startSize=20;horizontal=0;html=1;" parent="hUjVV0NGcqdqixy6RG3n-81" vertex="1">
                    <mxGeometry y="700" width="350" height="710" as="geometry"/>
                </mxCell>
                <mxCell id="hUjVV0NGcqdqixy6RG3n-92" value="" style="edgeStyle=orthogonalEdgeStyle;rounded=0;orthogonalLoop=1;jettySize=auto;html=1;" parent="hUjVV0NGcqdqixy6RG3n-84" source="hUjVV0NGcqdqixy6RG3n-89" target="hUjVV0NGcqdqixy6RG3n-91" edge="1">
                    <mxGeometry relative="1" as="geometry"/>
                </mxCell>
                <mxCell id="hUjVV0NGcqdqixy6RG3n-89" value="Add name to fields" style="rounded=1;whiteSpace=wrap;html=1;" parent="hUjVV0NGcqdqixy6RG3n-84" vertex="1">
                    <mxGeometry x="197.12" y="212" width="120" height="34.53" as="geometry"/>
                </mxCell>
                <mxCell id="hUjVV0NGcqdqixy6RG3n-99" value="" style="edgeStyle=orthogonalEdgeStyle;rounded=0;orthogonalLoop=1;jettySize=auto;html=1;entryX=0.501;entryY=0.028;entryDx=0;entryDy=0;entryPerimeter=0;" parent="hUjVV0NGcqdqixy6RG3n-84" source="hUjVV0NGcqdqixy6RG3n-91" target="hUjVV0NGcqdqixy6RG3n-338" edge="1">
                    <mxGeometry relative="1" as="geometry">
                        <mxPoint x="257.16666666666674" y="342" as="targetPoint"/>
                        <Array as="points">
                            <mxPoint x="257" y="332"/>
                            <mxPoint x="174" y="332"/>
                        </Array>
                    </mxGeometry>
                </mxCell>
                <mxCell id="hUjVV0NGcqdqixy6RG3n-91" value="Fix cell methods, lat/lon and level coords" style="whiteSpace=wrap;html=1;rounded=1;" parent="hUjVV0NGcqdqixy6RG3n-84" vertex="1">
                    <mxGeometry x="197.12" y="272.01" width="120" height="49.99" as="geometry"/>
                </mxCell>
                <mxCell id="hUjVV0NGcqdqixy6RG3n-349" value="" style="edgeStyle=orthogonalEdgeStyle;rounded=0;orthogonalLoop=1;jettySize=auto;html=1;entryX=0.5;entryY=0.042;entryDx=0;entryDy=0;entryPerimeter=0;" parent="hUjVV0NGcqdqixy6RG3n-84" source="hUjVV0NGcqdqixy6RG3n-100" target="hUjVV0NGcqdqixy6RG3n-346" edge="1">
                    <mxGeometry relative="1" as="geometry">
                        <mxPoint x="147" y="502" as="targetPoint"/>
                    </mxGeometry>
                </mxCell>
                <mxCell id="hUjVV0NGcqdqixy6RG3n-100" value="Fix pressure coords" style="rounded=1;whiteSpace=wrap;html=1;" parent="hUjVV0NGcqdqixy6RG3n-84" vertex="1">
                    <mxGeometry x="197.5" y="412" width="120" height="30" as="geometry"/>
                </mxCell>
                <mxCell id="hUjVV0NGcqdqixy6RG3n-109" value="" style="edgeStyle=orthogonalEdgeStyle;rounded=0;orthogonalLoop=1;jettySize=auto;html=1;" parent="hUjVV0NGcqdqixy6RG3n-84" source="hUjVV0NGcqdqixy6RG3n-106" target="hUjVV0NGcqdqixy6RG3n-108" edge="1">
                    <mxGeometry relative="1" as="geometry"/>
                </mxCell>
                <mxCell id="hUjVV0NGcqdqixy6RG3n-106" value="Set missing value" style="rounded=1;whiteSpace=wrap;html=1;" parent="hUjVV0NGcqdqixy6RG3n-84" vertex="1">
                    <mxGeometry x="197.12" y="572" width="120" height="30" as="geometry"/>
                </mxCell>
                <mxCell id="hUjVV0NGcqdqixy6RG3n-111" value="" style="edgeStyle=orthogonalEdgeStyle;rounded=0;orthogonalLoop=1;jettySize=auto;html=1;" parent="hUjVV0NGcqdqixy6RG3n-84" source="hUjVV0NGcqdqixy6RG3n-108" target="hUjVV0NGcqdqixy6RG3n-110" edge="1">
                    <mxGeometry relative="1" as="geometry"/>
                </mxCell>
                <mxCell id="hUjVV0NGcqdqixy6RG3n-108" value="Convert proleptic calendar" style="rounded=1;whiteSpace=wrap;html=1;" parent="hUjVV0NGcqdqixy6RG3n-84" vertex="1">
                    <mxGeometry x="197.5" y="622" width="120" height="30" as="geometry"/>
                </mxCell>
                <mxCell id="hUjVV0NGcqdqixy6RG3n-110" value="Write fields" style="rounded=1;whiteSpace=wrap;html=1;" parent="hUjVV0NGcqdqixy6RG3n-84" vertex="1">
                    <mxGeometry x="197.5" y="672" width="120" height="25" as="geometry"/>
                </mxCell>
                <mxCell id="hUjVV0NGcqdqixy6RG3n-330" value="" style="edgeStyle=orthogonalEdgeStyle;rounded=0;orthogonalLoop=1;jettySize=auto;html=1;entryX=0.495;entryY=0.011;entryDx=0;entryDy=0;entryPerimeter=0;" parent="hUjVV0NGcqdqixy6RG3n-84" source="hUjVV0NGcqdqixy6RG3n-138" target="hUjVV0NGcqdqixy6RG3n-329" edge="1">
                    <mxGeometry relative="1" as="geometry">
                        <Array as="points">
                            <mxPoint x="258" y="52"/>
                            <mxPoint x="175" y="52"/>
                            <mxPoint x="175" y="73"/>
                        </Array>
                    </mxGeometry>
                </mxCell>
                <mxCell id="hUjVV0NGcqdqixy6RG3n-138" value="&lt;span style=&quot;font-family: Helvetica; font-size: 12px; font-style: normal; font-variant-ligatures: normal; font-variant-caps: normal; font-weight: 400; letter-spacing: normal; orphans: 2; text-align: center; text-indent: 0px; text-transform: none; widows: 2; word-spacing: 0px; -webkit-text-stroke-width: 0px; white-space: normal; text-decoration-thickness: initial; text-decoration-style: initial; text-decoration-color: initial; float: none; display: inline !important;&quot;&gt;Add attributes&lt;/span&gt;" style="rounded=1;whiteSpace=wrap;html=1;fontStyle=0;startSize=30;fontColor=#FFFFFF;" parent="hUjVV0NGcqdqixy6RG3n-84" vertex="1">
                    <mxGeometry x="207.5" y="19" width="100" height="20" as="geometry"/>
                </mxCell>
                <mxCell id="hUjVV0NGcqdqixy6RG3n-326" value="" style="edgeStyle=orthogonalEdgeStyle;rounded=0;orthogonalLoop=1;jettySize=auto;html=1;" parent="hUjVV0NGcqdqixy6RG3n-84" source="hUjVV0NGcqdqixy6RG3n-325" target="hUjVV0NGcqdqixy6RG3n-138" edge="1">
                    <mxGeometry relative="1" as="geometry"/>
                </mxCell>
                <mxCell id="hUjVV0NGcqdqixy6RG3n-325" value="--nohist" style="strokeWidth=1;html=1;shape=mxgraph.flowchart.terminator;whiteSpace=wrap;spacing=2;fontSize=12;labelBackgroundColor=none;fillStyle=solid;fillColor=#cdeb8b;strokeColor=#36393d;" parent="hUjVV0NGcqdqixy6RG3n-84" vertex="1">
                    <mxGeometry x="99.61999999999999" y="14" width="60" height="30" as="geometry"/>
                </mxCell>
                <mxCell id="hUjVV0NGcqdqixy6RG3n-328" value="" style="edgeStyle=orthogonalEdgeStyle;rounded=0;orthogonalLoop=1;jettySize=auto;html=1;entryX=0;entryY=0.5;entryDx=0;entryDy=0;" parent="hUjVV0NGcqdqixy6RG3n-84" source="hUjVV0NGcqdqixy6RG3n-327" target="hUjVV0NGcqdqixy6RG3n-89" edge="1">
                    <mxGeometry relative="1" as="geometry"/>
                </mxCell>
                <mxCell id="hUjVV0NGcqdqixy6RG3n-327" value="--simple" style="strokeWidth=1;html=1;shape=mxgraph.flowchart.terminator;whiteSpace=wrap;spacing=2;fontSize=12;labelBackgroundColor=none;fillStyle=solid;fillColor=#cdeb8b;strokeColor=#36393d;" parent="hUjVV0NGcqdqixy6RG3n-84" vertex="1">
                    <mxGeometry x="99.61999999999999" y="214.26999999999998" width="60" height="30" as="geometry"/>
                </mxCell>
                <mxCell id="hUjVV0NGcqdqixy6RG3n-329" value="--include&lt;br style=&quot;font-size: 10px;&quot;&gt;OR&lt;br style=&quot;font-size: 10px;&quot;&gt;--exclude" style="html=1;whiteSpace=wrap;aspect=fixed;shape=isoRectangle;fillColor=#ffcc99;strokeColor=#36393d;fontSize=10;" parent="hUjVV0NGcqdqixy6RG3n-84" vertex="1">
                    <mxGeometry x="125" y="72" width="100" height="60" as="geometry"/>
                </mxCell>
                <mxCell id="hUjVV0NGcqdqixy6RG3n-335" value="" style="edgeStyle=orthogonalEdgeStyle;rounded=0;orthogonalLoop=1;jettySize=auto;html=1;entryX=0.25;entryY=0;entryDx=0;entryDy=0;" parent="hUjVV0NGcqdqixy6RG3n-84" source="hUjVV0NGcqdqixy6RG3n-331" target="hUjVV0NGcqdqixy6RG3n-89" edge="1">
                    <mxGeometry relative="1" as="geometry"/>
                </mxCell>
                <mxCell id="hUjVV0NGcqdqixy6RG3n-331" value="Skip specific fields" style="rounded=1;whiteSpace=wrap;html=1;fontStyle=0;startSize=30;" parent="hUjVV0NGcqdqixy6RG3n-84" vertex="1">
                    <mxGeometry x="40" y="142" width="110" height="30" as="geometry"/>
                </mxCell>
                <mxCell id="hUjVV0NGcqdqixy6RG3n-333" value="" style="edgeStyle=orthogonalEdgeStyle;rounded=0;orthogonalLoop=1;jettySize=auto;html=1;entryX=0.5;entryY=0;entryDx=0;entryDy=0;exitX=0.002;exitY=0.497;exitDx=0;exitDy=0;exitPerimeter=0;strokeColor=#00CC00;" parent="hUjVV0NGcqdqixy6RG3n-84" source="hUjVV0NGcqdqixy6RG3n-329" target="hUjVV0NGcqdqixy6RG3n-331" edge="1">
                    <mxGeometry relative="1" as="geometry">
                        <mxPoint x="125" y="89.5" as="sourcePoint"/>
                        <mxPoint x="53" y="114.5" as="targetPoint"/>
                    </mxGeometry>
                </mxCell>
                <mxCell id="hUjVV0NGcqdqixy6RG3n-334" value="" style="edgeStyle=orthogonalEdgeStyle;rounded=0;orthogonalLoop=1;jettySize=auto;html=1;entryX=0.5;entryY=0;entryDx=0;entryDy=0;exitX=0.998;exitY=0.514;exitDx=0;exitDy=0;exitPerimeter=0;strokeColor=#FF5C33;" parent="hUjVV0NGcqdqixy6RG3n-84" source="hUjVV0NGcqdqixy6RG3n-329" target="hUjVV0NGcqdqixy6RG3n-89" edge="1">
                    <mxGeometry relative="1" as="geometry">
                        <mxPoint x="278" y="57" as="sourcePoint"/>
                        <mxPoint x="307" y="132" as="targetPoint"/>
                    </mxGeometry>
                </mxCell>
                <mxCell id="hUjVV0NGcqdqixy6RG3n-342" value="" style="edgeStyle=orthogonalEdgeStyle;rounded=0;orthogonalLoop=1;jettySize=auto;html=1;" parent="hUjVV0NGcqdqixy6RG3n-84" source="hUjVV0NGcqdqixy6RG3n-336" target="hUjVV0NGcqdqixy6RG3n-337" edge="1">
                    <mxGeometry relative="1" as="geometry">
                        <Array as="points">
                            <mxPoint x="60" y="452"/>
                            <mxPoint x="93" y="452"/>
                        </Array>
                    </mxGeometry>
                </mxCell>
                <mxCell id="hUjVV0NGcqdqixy6RG3n-336" value="--hcrit" style="strokeWidth=1;html=1;shape=mxgraph.flowchart.terminator;whiteSpace=wrap;spacing=2;fontSize=12;labelBackgroundColor=none;fillStyle=solid;fillColor=#cdeb8b;strokeColor=#36393d;" parent="hUjVV0NGcqdqixy6RG3n-84" vertex="1">
                    <mxGeometry x="29.999999999999993" y="465.44000000000005" width="60" height="30" as="geometry"/>
                </mxCell>
                <mxCell id="hUjVV0NGcqdqixy6RG3n-338" value="&lt;span style=&quot;font-size: 12px;&quot;&gt;NOT&lt;/span&gt;&lt;br style=&quot;font-size: 12px;&quot;&gt;&lt;span style=&quot;font-size: 12px;&quot;&gt;--nomask&lt;/span&gt;" style="html=1;whiteSpace=wrap;aspect=fixed;shape=isoRectangle;fillColor=#ffcc99;strokeColor=#36393d;fontSize=12;" parent="hUjVV0NGcqdqixy6RG3n-84" vertex="1">
                    <mxGeometry x="123.73" y="342" width="100" height="60" as="geometry"/>
                </mxCell>
                <mxCell id="hUjVV0NGcqdqixy6RG3n-340" value="" style="edgeStyle=orthogonalEdgeStyle;rounded=0;orthogonalLoop=1;jettySize=auto;html=1;entryX=0.5;entryY=0;entryDx=0;entryDy=0;exitX=0.998;exitY=0.514;exitDx=0;exitDy=0;exitPerimeter=0;strokeColor=#FF5C33;" parent="hUjVV0NGcqdqixy6RG3n-84" source="hUjVV0NGcqdqixy6RG3n-338" target="hUjVV0NGcqdqixy6RG3n-100" edge="1">
                    <mxGeometry relative="1" as="geometry">
                        <mxPoint x="276.73" y="327" as="sourcePoint"/>
                        <mxPoint x="255.73" y="482" as="targetPoint"/>
                    </mxGeometry>
                </mxCell>
                <mxCell id="hUjVV0NGcqdqixy6RG3n-341" value="" style="edgeStyle=orthogonalEdgeStyle;rounded=0;orthogonalLoop=1;jettySize=auto;html=1;entryX=0.5;entryY=0;entryDx=0;entryDy=0;exitX=0.002;exitY=0.497;exitDx=0;exitDy=0;exitPerimeter=0;strokeColor=#00CC00;" parent="hUjVV0NGcqdqixy6RG3n-84" source="hUjVV0NGcqdqixy6RG3n-338" target="hUjVV0NGcqdqixy6RG3n-337" edge="1">
                    <mxGeometry relative="1" as="geometry">
                        <mxPoint x="64" y="1092" as="sourcePoint"/>
                        <mxPoint x="33.730000000000004" y="1132" as="targetPoint"/>
                    </mxGeometry>
                </mxCell>
                <mxCell id="hUjVV0NGcqdqixy6RG3n-343" value="" style="edgeStyle=orthogonalEdgeStyle;rounded=0;orthogonalLoop=1;jettySize=auto;html=1;exitX=1;exitY=0.5;exitDx=0;exitDy=0;entryX=0;entryY=0.5;entryDx=0;entryDy=0;" parent="hUjVV0NGcqdqixy6RG3n-84" source="hUjVV0NGcqdqixy6RG3n-337" target="hUjVV0NGcqdqixy6RG3n-100" edge="1">
                    <mxGeometry relative="1" as="geometry"/>
                </mxCell>
                <mxCell id="hUjVV0NGcqdqixy6RG3n-337" value="Add mask to &lt;br&gt;pressure levels" style="rounded=1;whiteSpace=wrap;html=1;" parent="hUjVV0NGcqdqixy6RG3n-84" vertex="1">
                    <mxGeometry x="33.43000000000001" y="402" width="120" height="34.53" as="geometry"/>
                </mxCell>
                <mxCell id="hUjVV0NGcqdqixy6RG3n-345" value="" style="edgeStyle=orthogonalEdgeStyle;rounded=0;orthogonalLoop=1;jettySize=auto;html=1;" parent="hUjVV0NGcqdqixy6RG3n-84" source="hUjVV0NGcqdqixy6RG3n-344" target="hUjVV0NGcqdqixy6RG3n-110" edge="1">
                    <mxGeometry relative="1" as="geometry"/>
                </mxCell>
                <mxCell id="hUjVV0NGcqdqixy6RG3n-344" value="--compression" style="strokeWidth=1;html=1;shape=mxgraph.flowchart.terminator;whiteSpace=wrap;spacing=2;fontSize=10;labelBackgroundColor=none;fillStyle=solid;fillColor=#cdeb8b;strokeColor=#36393d;" parent="hUjVV0NGcqdqixy6RG3n-84" vertex="1">
                    <mxGeometry x="85.62" y="669.5" width="80" height="30" as="geometry"/>
                </mxCell>
                <mxCell id="hUjVV0NGcqdqixy6RG3n-346" value="&lt;font style=&quot;font-size: 12px;&quot;&gt;NOT&lt;br style=&quot;&quot;&gt;--64bit&lt;/font&gt;" style="html=1;whiteSpace=wrap;aspect=fixed;shape=isoRectangle;fillColor=#ffcc99;strokeColor=#36393d;fontSize=12;" parent="hUjVV0NGcqdqixy6RG3n-84" vertex="1">
                    <mxGeometry x="125.00000000000003" y="482" width="100" height="60" as="geometry"/>
                </mxCell>
                <mxCell id="hUjVV0NGcqdqixy6RG3n-347" value="" style="edgeStyle=orthogonalEdgeStyle;rounded=0;orthogonalLoop=1;jettySize=auto;html=1;exitX=0.998;exitY=0.514;exitDx=0;exitDy=0;exitPerimeter=0;strokeColor=#FF5C33;" parent="hUjVV0NGcqdqixy6RG3n-84" source="hUjVV0NGcqdqixy6RG3n-346" target="hUjVV0NGcqdqixy6RG3n-106" edge="1">
                    <mxGeometry relative="1" as="geometry">
                        <mxPoint x="220.10000000000002" y="497" as="sourcePoint"/>
                        <mxPoint x="201.37" y="582" as="targetPoint"/>
                    </mxGeometry>
                </mxCell>
                <mxCell id="hUjVV0NGcqdqixy6RG3n-348" value="" style="edgeStyle=orthogonalEdgeStyle;rounded=0;orthogonalLoop=1;jettySize=auto;html=1;entryX=0.5;entryY=0;entryDx=0;entryDy=0;exitX=0.002;exitY=0.497;exitDx=0;exitDy=0;exitPerimeter=0;strokeColor=#00CC00;" parent="hUjVV0NGcqdqixy6RG3n-84" source="hUjVV0NGcqdqixy6RG3n-346" target="hUjVV0NGcqdqixy6RG3n-351" edge="1">
                    <mxGeometry relative="1" as="geometry">
                        <mxPoint x="7.3700000000000045" y="1262" as="sourcePoint"/>
                        <mxPoint x="36.370000000000005" y="572" as="targetPoint"/>
                        <Array as="points">
                            <mxPoint x="95" y="512"/>
                        </Array>
                    </mxGeometry>
                </mxCell>
                <mxCell id="hUjVV0NGcqdqixy6RG3n-352" value="" style="edgeStyle=orthogonalEdgeStyle;rounded=0;orthogonalLoop=1;jettySize=auto;html=1;entryX=0;entryY=0.5;entryDx=0;entryDy=0;" parent="hUjVV0NGcqdqixy6RG3n-84" source="hUjVV0NGcqdqixy6RG3n-351" target="hUjVV0NGcqdqixy6RG3n-106" edge="1">
                    <mxGeometry relative="1" as="geometry"/>
                </mxCell>
                <mxCell id="hUjVV0NGcqdqixy6RG3n-351" value="Change data to &lt;br&gt;32 bits" style="rounded=1;whiteSpace=wrap;html=1;" parent="hUjVV0NGcqdqixy6RG3n-84" vertex="1">
                    <mxGeometry x="45" y="562" width="100" height="30" as="geometry"/>
                </mxCell>
                <mxCell id="hUjVV0NGcqdqixy6RG3n-118" value="" style="edgeStyle=orthogonalEdgeStyle;rounded=0;orthogonalLoop=1;jettySize=auto;html=1;entryX=0.5;entryY=0;entryDx=0;entryDy=0;exitX=0.5;exitY=1;exitDx=0;exitDy=0;" parent="hUjVV0NGcqdqixy6RG3n-81" source="hUjVV0NGcqdqixy6RG3n-73" target="hUjVV0NGcqdqixy6RG3n-138" edge="1">
                    <mxGeometry relative="1" as="geometry">
                        <mxPoint x="370" y="630" as="targetPoint"/>
                        <mxPoint x="257.47619047619037" y="640" as="sourcePoint"/>
                    </mxGeometry>
                </mxCell>
                <mxCell id="I_a6mHRPED68WXZHo2h1-102" value="" style="edgeStyle=orthogonalEdgeStyle;rounded=0;orthogonalLoop=1;jettySize=auto;html=1;entryX=0.5;entryY=0;entryDx=0;entryDy=0;" parent="hUjVV0NGcqdqixy6RG3n-81" source="hUjVV0NGcqdqixy6RG3n-46" target="hUjVV0NGcqdqixy6RG3n-53" edge="1">
                    <mxGeometry relative="1" as="geometry">
                        <mxPoint x="150" y="450" as="targetPoint"/>
                    </mxGeometry>
                </mxCell>
                <mxCell id="hUjVV0NGcqdqixy6RG3n-169" value="Legend" style="swimlane;whiteSpace=wrap;html=1;fillColor=#cce5ff;strokeColor=#36393d;fontSize=16;" parent="1" vertex="1">
                    <mxGeometry x="-260" width="150" height="340" as="geometry">
                        <mxRectangle x="-260" width="80" height="30" as="alternateBounds"/>
                    </mxGeometry>
                </mxCell>
                <mxCell id="hUjVV0NGcqdqixy6RG3n-170" value="&lt;div&gt;conditional&lt;/div&gt;&lt;div&gt;--option&lt;/div&gt;" style="html=1;whiteSpace=wrap;aspect=fixed;shape=isoRectangle;fillColor=#ffcc99;strokeColor=#36393d;" parent="hUjVV0NGcqdqixy6RG3n-169" vertex="1">
                    <mxGeometry x="20" y="80" width="110" height="66" as="geometry"/>
                </mxCell>
                <mxCell id="hUjVV0NGcqdqixy6RG3n-171" value="--option gets read" style="strokeWidth=1;html=1;shape=mxgraph.flowchart.terminator;whiteSpace=wrap;spacing=2;fontSize=12;labelBackgroundColor=none;fillStyle=solid;fillColor=#cdeb8b;strokeColor=#36393d;" parent="hUjVV0NGcqdqixy6RG3n-169" vertex="1">
                    <mxGeometry x="12.92" y="170" width="124.16" height="60" as="geometry"/>
                </mxCell>
                <mxCell id="hUjVV0NGcqdqixy6RG3n-172" value="Step" style="rounded=1;whiteSpace=wrap;html=1;fontStyle=0;startSize=30;" parent="hUjVV0NGcqdqixy6RG3n-169" vertex="1">
                    <mxGeometry x="7.499999999999975" y="30" width="135" height="40" as="geometry"/>
                </mxCell>
                <mxCell id="hUjVV0NGcqdqixy6RG3n-201" value="Options" style="shape=table;startSize=30;container=1;collapsible=0;childLayout=tableLayout;strokeColor=#9673a6;fontSize=16;fillColor=#e1d5e7;" parent="hUjVV0NGcqdqixy6RG3n-169" vertex="1">
                    <mxGeometry x="21.5" y="255" width="107" height="70" as="geometry"/>
                </mxCell>
                <mxCell id="hUjVV0NGcqdqixy6RG3n-202" value="" style="shape=tableRow;horizontal=0;startSize=0;swimlaneHead=0;swimlaneBody=0;strokeColor=inherit;top=0;left=0;bottom=0;right=0;collapsible=0;dropTarget=0;fillColor=none;points=[[0,0.5],[1,0.5]];portConstraint=eastwest;fontSize=16;" parent="hUjVV0NGcqdqixy6RG3n-201" vertex="1">
                    <mxGeometry y="30" width="107" height="20" as="geometry"/>
                </mxCell>
                <mxCell id="hUjVV0NGcqdqixy6RG3n-203" value="--option1" style="shape=partialRectangle;html=1;whiteSpace=wrap;connectable=0;strokeColor=inherit;overflow=hidden;fillColor=none;top=0;left=0;bottom=0;right=0;pointerEvents=1;fontSize=7;" parent="hUjVV0NGcqdqixy6RG3n-202" vertex="1">
                    <mxGeometry width="36" height="20" as="geometry">
                        <mxRectangle width="36" height="20" as="alternateBounds"/>
                    </mxGeometry>
                </mxCell>
                <mxCell id="hUjVV0NGcqdqixy6RG3n-204" value="&lt;span style=&quot;font-size: 7px;&quot;&gt;--option2&lt;/span&gt;" style="shape=partialRectangle;html=1;whiteSpace=wrap;connectable=0;strokeColor=inherit;overflow=hidden;fillColor=none;top=0;left=0;bottom=0;right=0;pointerEvents=1;fontSize=7;" parent="hUjVV0NGcqdqixy6RG3n-202" vertex="1">
                    <mxGeometry x="36" width="35" height="20" as="geometry">
                        <mxRectangle width="35" height="20" as="alternateBounds"/>
                    </mxGeometry>
                </mxCell>
                <mxCell id="hUjVV0NGcqdqixy6RG3n-205" value="--option3" style="shape=partialRectangle;html=1;whiteSpace=wrap;connectable=0;strokeColor=inherit;overflow=hidden;fillColor=none;top=0;left=0;bottom=0;right=0;pointerEvents=1;fontSize=7;" parent="hUjVV0NGcqdqixy6RG3n-202" vertex="1">
                    <mxGeometry x="71" width="36" height="20" as="geometry">
                        <mxRectangle width="36" height="20" as="alternateBounds"/>
                    </mxGeometry>
                </mxCell>
                <mxCell id="hUjVV0NGcqdqixy6RG3n-206" value="" style="shape=tableRow;horizontal=0;startSize=0;swimlaneHead=0;swimlaneBody=0;strokeColor=inherit;top=0;left=0;bottom=0;right=0;collapsible=0;dropTarget=0;fillColor=none;points=[[0,0.5],[1,0.5]];portConstraint=eastwest;fontSize=16;" parent="hUjVV0NGcqdqixy6RG3n-201" vertex="1">
                    <mxGeometry y="50" width="107" height="20" as="geometry"/>
                </mxCell>
                <mxCell id="hUjVV0NGcqdqixy6RG3n-207" value="--option4" style="shape=partialRectangle;html=1;whiteSpace=wrap;connectable=0;strokeColor=inherit;overflow=hidden;fillColor=none;top=0;left=0;bottom=0;right=0;pointerEvents=1;fontSize=7;" parent="hUjVV0NGcqdqixy6RG3n-206" vertex="1">
                    <mxGeometry width="36" height="20" as="geometry">
                        <mxRectangle width="36" height="20" as="alternateBounds"/>
                    </mxGeometry>
                </mxCell>
                <mxCell id="hUjVV0NGcqdqixy6RG3n-208" value="--option5" style="shape=partialRectangle;html=1;whiteSpace=wrap;connectable=0;strokeColor=inherit;overflow=hidden;fillColor=none;top=0;left=0;bottom=0;right=0;pointerEvents=1;fontSize=7;" parent="hUjVV0NGcqdqixy6RG3n-206" vertex="1">
                    <mxGeometry x="36" width="35" height="20" as="geometry">
                        <mxRectangle width="35" height="20" as="alternateBounds"/>
                    </mxGeometry>
                </mxCell>
                <mxCell id="hUjVV0NGcqdqixy6RG3n-209" value="--option6" style="shape=partialRectangle;html=1;whiteSpace=wrap;connectable=0;strokeColor=inherit;overflow=hidden;fillColor=none;top=0;left=0;bottom=0;right=0;pointerEvents=1;fontSize=7;" parent="hUjVV0NGcqdqixy6RG3n-206" vertex="1">
                    <mxGeometry x="71" width="36" height="20" as="geometry">
                        <mxRectangle width="36" height="20" as="alternateBounds"/>
                    </mxGeometry>
                </mxCell>
                <mxCell id="hUjVV0NGcqdqixy6RG3n-322" value="False" style="text;html=1;align=center;verticalAlign=middle;whiteSpace=wrap;rounded=0;fontColor=#FF5C33;" parent="hUjVV0NGcqdqixy6RG3n-169" vertex="1">
                    <mxGeometry x="100" y="126" width="40" height="14" as="geometry"/>
                </mxCell>
                <mxCell id="hUjVV0NGcqdqixy6RG3n-318" value="" style="endArrow=classic;html=1;rounded=0;exitX=0.899;exitY=0.592;exitDx=0;exitDy=0;exitPerimeter=0;strokeColor=#FF5C33;" parent="hUjVV0NGcqdqixy6RG3n-169" source="hUjVV0NGcqdqixy6RG3n-170" edge="1">
                    <mxGeometry width="50" height="50" relative="1" as="geometry">
                        <mxPoint x="115.75000000000007" y="120.00200000000001" as="sourcePoint"/>
                        <mxPoint x="120" y="160" as="targetPoint"/>
                        <Array as="points">
                            <mxPoint x="140" y="130"/>
                        </Array>
                    </mxGeometry>
                </mxCell>
                <mxCell id="hUjVV0NGcqdqixy6RG3n-320" value="True" style="text;html=1;align=center;verticalAlign=middle;whiteSpace=wrap;rounded=0;fontColor=#00CC00;" parent="hUjVV0NGcqdqixy6RG3n-169" vertex="1">
                    <mxGeometry x="12.92" y="126" width="40" height="14" as="geometry"/>
                </mxCell>
                <mxCell id="hUjVV0NGcqdqixy6RG3n-319" value="" style="endArrow=classic;html=1;rounded=0;exitX=0.102;exitY=0.594;exitDx=0;exitDy=0;exitPerimeter=0;fontColor=#00CC00;strokeColor=#00CC00;" parent="hUjVV0NGcqdqixy6RG3n-169" source="hUjVV0NGcqdqixy6RG3n-170" edge="1">
                    <mxGeometry width="50" height="50" relative="1" as="geometry">
                        <mxPoint x="30.920000000000115" y="118.27399999999997" as="sourcePoint"/>
                        <mxPoint x="39.92" y="159.73" as="targetPoint"/>
                        <Array as="points">
                            <mxPoint x="9.92" y="129.73"/>
                        </Array>
                    </mxGeometry>
                </mxCell>
                <mxCell id="hUjVV0NGcqdqixy6RG3n-300" value="" style="curved=1;endArrow=classic;html=1;rounded=0;exitX=0.75;exitY=1;exitDx=0;exitDy=0;entryX=0.5;entryY=0;entryDx=0;entryDy=0;" parent="1" source="hUjVV0NGcqdqixy6RG3n-2" target="hUjVV0NGcqdqixy6RG3n-388" edge="1">
                    <mxGeometry width="50" height="50" relative="1" as="geometry">
                        <mxPoint x="670" y="70" as="sourcePoint"/>
                        <mxPoint x="690" y="120" as="targetPoint"/>
                        <Array as="points">
                            <mxPoint x="590" y="50"/>
                        </Array>
                    </mxGeometry>
                </mxCell>
                <mxCell id="hUjVV0NGcqdqixy6RG3n-388" value="&lt;span style=&quot;text-wrap: wrap; font-size: 16px;&quot;&gt;modify&lt;/span&gt;" style="swimlane;childLayout=stackLayout;resizeParent=1;resizeParentMax=0;horizontal=1;startSize=20;horizontalStack=0;html=1;fillColor=#ABABAB;fontSize=16;" parent="1" vertex="1">
                    <mxGeometry x="517" y="130" width="453" height="2150" as="geometry">
                        <mxRectangle x="200" y="130" width="60" height="30" as="alternateBounds"/>
                    </mxGeometry>
                </mxCell>
                <mxCell id="hUjVV0NGcqdqixy6RG3n-389" value="Options" style="swimlane;startSize=20;horizontal=0;html=1;" parent="hUjVV0NGcqdqixy6RG3n-388" vertex="1">
                    <mxGeometry y="20" width="453" height="210" as="geometry"/>
                </mxCell>
                <mxCell id="hUjVV0NGcqdqixy6RG3n-390" value="" style="shape=tableRow;horizontal=0;startSize=0;swimlaneHead=0;swimlaneBody=0;strokeColor=inherit;top=0;left=0;bottom=0;right=0;collapsible=0;dropTarget=0;fillColor=none;points=[[0,0.5],[1,0.5]];portConstraint=eastwest;fontSize=16;" parent="hUjVV0NGcqdqixy6RG3n-389" vertex="1">
                    <mxGeometry x="230" y="200" width="180" height="40" as="geometry"/>
                </mxCell>
                <mxCell id="hUjVV0NGcqdqixy6RG3n-391" value="Options" style="shape=table;startSize=30;container=1;collapsible=0;childLayout=tableLayout;strokeColor=#9673a6;fontSize=16;fillColor=#e1d5e7;" parent="hUjVV0NGcqdqixy6RG3n-389" vertex="1">
                    <mxGeometry x="65" y="10" width="220" height="190" as="geometry"/>
                </mxCell>
                <mxCell id="hUjVV0NGcqdqixy6RG3n-392" value="" style="shape=tableRow;horizontal=0;startSize=0;swimlaneHead=0;swimlaneBody=0;strokeColor=inherit;top=0;left=0;bottom=0;right=0;collapsible=0;dropTarget=0;fillColor=none;points=[[0,0.5],[1,0.5]];portConstraint=eastwest;fontSize=16;" parent="hUjVV0NGcqdqixy6RG3n-391" vertex="1">
                    <mxGeometry y="30" width="220" height="40" as="geometry"/>
                </mxCell>
                <mxCell id="hUjVV0NGcqdqixy6RG3n-393" value="&lt;span style=&quot;font-size: 16px; text-align: left;&quot;&gt;--input&lt;/span&gt;" style="shape=partialRectangle;html=1;whiteSpace=wrap;connectable=0;strokeColor=inherit;overflow=hidden;fillColor=none;top=0;left=0;bottom=0;right=0;pointerEvents=1;fontSize=16;" parent="hUjVV0NGcqdqixy6RG3n-392" vertex="1">
                    <mxGeometry width="73" height="40" as="geometry">
                        <mxRectangle width="73" height="40" as="alternateBounds"/>
                    </mxGeometry>
                </mxCell>
                <mxCell id="hUjVV0NGcqdqixy6RG3n-394" value="&lt;span style=&quot;font-size: 16px; text-align: left;&quot;&gt;--output&lt;/span&gt;" style="shape=partialRectangle;html=1;whiteSpace=wrap;connectable=0;strokeColor=inherit;overflow=hidden;fillColor=none;top=0;left=0;bottom=0;right=0;pointerEvents=1;fontSize=16;" parent="hUjVV0NGcqdqixy6RG3n-392" vertex="1">
                    <mxGeometry x="73" width="74" height="40" as="geometry">
                        <mxRectangle width="74" height="40" as="alternateBounds"/>
                    </mxGeometry>
                </mxCell>
                <mxCell id="hUjVV0NGcqdqixy6RG3n-395" value="&lt;span style=&quot;font-size: 16px; text-align: left;&quot;&gt;--netcdf&lt;/span&gt;" style="shape=partialRectangle;html=1;whiteSpace=wrap;connectable=0;strokeColor=inherit;overflow=hidden;fillColor=none;top=0;left=0;bottom=0;right=0;pointerEvents=1;fontSize=16;" parent="hUjVV0NGcqdqixy6RG3n-392" vertex="1">
                    <mxGeometry x="147" width="73" height="40" as="geometry">
                        <mxRectangle width="73" height="40" as="alternateBounds"/>
                    </mxGeometry>
                </mxCell>
                <mxCell id="hUjVV0NGcqdqixy6RG3n-396" value="" style="shape=tableRow;horizontal=0;startSize=0;swimlaneHead=0;swimlaneBody=0;strokeColor=inherit;top=0;left=0;bottom=0;right=0;collapsible=0;dropTarget=0;fillColor=none;points=[[0,0.5],[1,0.5]];portConstraint=eastwest;fontSize=16;" parent="hUjVV0NGcqdqixy6RG3n-391" vertex="1">
                    <mxGeometry y="70" width="220" height="40" as="geometry"/>
                </mxCell>
                <mxCell id="hUjVV0NGcqdqixy6RG3n-397" value="&lt;span style=&quot;text-align: left;&quot;&gt;&lt;font style=&quot;font-size: 16px;&quot;&gt;--ufunc&lt;/font&gt;&lt;/span&gt;" style="shape=partialRectangle;html=1;whiteSpace=wrap;connectable=0;strokeColor=inherit;overflow=hidden;fillColor=none;top=0;left=0;bottom=0;right=0;pointerEvents=1;fontSize=16;" parent="hUjVV0NGcqdqixy6RG3n-396" vertex="1">
                    <mxGeometry width="73" height="40" as="geometry">
                        <mxRectangle width="73" height="40" as="alternateBounds"/>
                    </mxGeometry>
                </mxCell>
                <mxCell id="hUjVV0NGcqdqixy6RG3n-398" value="&lt;font style=&quot;font-size: 16px;&quot;&gt;--stash&lt;/font&gt;" style="shape=partialRectangle;html=1;whiteSpace=wrap;connectable=0;strokeColor=inherit;overflow=hidden;fillColor=none;top=0;left=0;bottom=0;right=0;pointerEvents=1;fontSize=16;align=center;" parent="hUjVV0NGcqdqixy6RG3n-396" vertex="1">
                    <mxGeometry x="73" width="74" height="40" as="geometry">
                        <mxRectangle width="74" height="40" as="alternateBounds"/>
                    </mxGeometry>
                </mxCell>
                <mxCell id="hUjVV0NGcqdqixy6RG3n-399" value="&lt;span style=&quot;text-align: left;&quot;&gt;&lt;font style=&quot;font-size: 14px;&quot;&gt;--latitude&lt;/font&gt;&lt;/span&gt;" style="shape=partialRectangle;html=1;whiteSpace=wrap;connectable=0;strokeColor=inherit;overflow=hidden;fillColor=none;top=0;left=0;bottom=0;right=0;pointerEvents=1;fontSize=16;" parent="hUjVV0NGcqdqixy6RG3n-396" vertex="1">
                    <mxGeometry x="147" width="73" height="40" as="geometry">
                        <mxRectangle width="73" height="40" as="alternateBounds"/>
                    </mxGeometry>
                </mxCell>
                <mxCell id="hUjVV0NGcqdqixy6RG3n-400" value="" style="shape=tableRow;horizontal=0;startSize=0;swimlaneHead=0;swimlaneBody=0;strokeColor=inherit;top=0;left=0;bottom=0;right=0;collapsible=0;dropTarget=0;fillColor=none;points=[[0,0.5],[1,0.5]];portConstraint=eastwest;fontSize=16;" parent="hUjVV0NGcqdqixy6RG3n-391" vertex="1">
                    <mxGeometry y="110" width="220" height="40" as="geometry"/>
                </mxCell>
                <mxCell id="hUjVV0NGcqdqixy6RG3n-401" value="&lt;span style=&quot;text-align: left;&quot;&gt;&lt;font style=&quot;font-size: 14px;&quot;&gt;--longitude&lt;/font&gt;&lt;/span&gt;" style="shape=partialRectangle;html=1;whiteSpace=wrap;connectable=0;strokeColor=inherit;overflow=hidden;fillColor=none;top=0;left=0;bottom=0;right=0;pointerEvents=1;fontSize=16;" parent="hUjVV0NGcqdqixy6RG3n-400" vertex="1">
                    <mxGeometry width="73" height="40" as="geometry">
                        <mxRectangle width="73" height="40" as="alternateBounds"/>
                    </mxGeometry>
                </mxCell>
                <mxCell id="hUjVV0NGcqdqixy6RG3n-402" value="&lt;span style=&quot;text-align: left;&quot;&gt;&lt;font style=&quot;font-size: 15px;&quot;&gt;--time&lt;/font&gt;&lt;/span&gt;" style="shape=partialRectangle;html=1;whiteSpace=wrap;connectable=0;strokeColor=inherit;overflow=hidden;fillColor=none;top=0;left=0;bottom=0;right=0;pointerEvents=1;fontSize=16;" parent="hUjVV0NGcqdqixy6RG3n-400" vertex="1">
                    <mxGeometry x="73" width="74" height="40" as="geometry">
                        <mxRectangle width="74" height="40" as="alternateBounds"/>
                    </mxGeometry>
                </mxCell>
                <mxCell id="hUjVV0NGcqdqixy6RG3n-403" value="&lt;span style=&quot;font-size: 16px; text-align: left;&quot;&gt;--level&lt;/span&gt;" style="shape=partialRectangle;html=1;whiteSpace=wrap;connectable=0;strokeColor=inherit;overflow=hidden;fillColor=none;top=0;left=0;bottom=0;right=0;pointerEvents=1;fontSize=16;" parent="hUjVV0NGcqdqixy6RG3n-400" vertex="1">
                    <mxGeometry x="147" width="73" height="40" as="geometry">
                        <mxRectangle width="73" height="40" as="alternateBounds"/>
                    </mxGeometry>
                </mxCell>
                <mxCell id="hUjVV0NGcqdqixy6RG3n-404" style="shape=tableRow;horizontal=0;startSize=0;swimlaneHead=0;swimlaneBody=0;strokeColor=inherit;top=0;left=0;bottom=0;right=0;collapsible=0;dropTarget=0;fillColor=none;points=[[0,0.5],[1,0.5]];portConstraint=eastwest;fontSize=16;" parent="hUjVV0NGcqdqixy6RG3n-391" vertex="1">
                    <mxGeometry y="150" width="220" height="40" as="geometry"/>
                </mxCell>
                <mxCell id="hUjVV0NGcqdqixy6RG3n-405" value="&lt;span style=&quot;font-size: 16px; text-align: left;&quot;&gt;--nan&lt;/span&gt;" style="shape=partialRectangle;html=1;whiteSpace=wrap;connectable=0;strokeColor=inherit;overflow=hidden;fillColor=none;top=0;left=0;bottom=0;right=0;pointerEvents=1;fontSize=16;" parent="hUjVV0NGcqdqixy6RG3n-404" vertex="1">
                    <mxGeometry width="73" height="40" as="geometry">
                        <mxRectangle width="73" height="40" as="alternateBounds"/>
                    </mxGeometry>
                </mxCell>
                <mxCell id="hUjVV0NGcqdqixy6RG3n-406" value="" style="shape=partialRectangle;html=1;whiteSpace=wrap;connectable=0;strokeColor=inherit;overflow=hidden;fillColor=none;top=0;left=0;bottom=0;right=0;pointerEvents=1;fontSize=16;" parent="hUjVV0NGcqdqixy6RG3n-404" vertex="1">
                    <mxGeometry x="73" width="74" height="40" as="geometry">
                        <mxRectangle width="74" height="40" as="alternateBounds"/>
                    </mxGeometry>
                </mxCell>
                <mxCell id="hUjVV0NGcqdqixy6RG3n-407" value="" style="shape=partialRectangle;html=1;whiteSpace=wrap;connectable=0;strokeColor=inherit;overflow=hidden;fillColor=none;top=0;left=0;bottom=0;right=0;pointerEvents=1;fontSize=16;" parent="hUjVV0NGcqdqixy6RG3n-404" vertex="1">
                    <mxGeometry x="147" width="73" height="40" as="geometry">
                        <mxRectangle width="73" height="40" as="alternateBounds"/>
                    </mxGeometry>
                </mxCell>
                <mxCell id="hUjVV0NGcqdqixy6RG3n-408" value="Read inputs" style="swimlane;startSize=20;horizontal=0;html=1;" parent="hUjVV0NGcqdqixy6RG3n-388" vertex="1">
                    <mxGeometry y="230" width="453" height="470" as="geometry">
                        <mxRectangle y="230" width="373" height="30" as="alternateBounds"/>
                    </mxGeometry>
                </mxCell>
                <mxCell id="hUjVV0NGcqdqixy6RG3n-409" value="Check option formats" style="rounded=1;whiteSpace=wrap;html=1;fontStyle=0;startSize=30;" parent="hUjVV0NGcqdqixy6RG3n-408" vertex="1">
                    <mxGeometry x="201" y="144" width="135" height="40" as="geometry"/>
                </mxCell>
                <mxCell id="hUjVV0NGcqdqixy6RG3n-410" value="&lt;span style=&quot;color: rgb(0, 0, 0); font-family: Helvetica; font-size: 12px; font-style: normal; font-variant-ligatures: normal; font-variant-caps: normal; font-weight: 400; letter-spacing: normal; orphans: 2; text-align: center; text-indent: 0px; text-transform: none; widows: 2; word-spacing: 0px; -webkit-text-stroke-width: 0px; white-space: normal; background-color: rgb(251, 251, 251); text-decoration-thickness: initial; text-decoration-style: initial; text-decoration-color: initial; display: inline !important; float: none;&quot;&gt;Read UM input file&lt;/span&gt;" style="rounded=1;whiteSpace=wrap;html=1;fontStyle=0;startSize=30;" parent="hUjVV0NGcqdqixy6RG3n-408" vertex="1">
                    <mxGeometry x="215" y="219" width="107.5" height="20" as="geometry"/>
                </mxCell>
                <mxCell id="hUjVV0NGcqdqixy6RG3n-411" value="" style="edgeStyle=orthogonalEdgeStyle;rounded=0;orthogonalLoop=1;jettySize=auto;html=1;exitX=0.5;exitY=1;exitDx=0;exitDy=0;" parent="hUjVV0NGcqdqixy6RG3n-408" source="hUjVV0NGcqdqixy6RG3n-409" target="hUjVV0NGcqdqixy6RG3n-410" edge="1">
                    <mxGeometry relative="1" as="geometry">
                        <mxPoint x="268.4929577464791" y="199" as="sourcePoint"/>
                    </mxGeometry>
                </mxCell>
                <mxCell id="hUjVV0NGcqdqixy6RG3n-413" value="--ufunc" style="strokeWidth=1;html=1;shape=mxgraph.flowchart.terminator;whiteSpace=wrap;spacing=2;fontSize=12;labelBackgroundColor=none;fillStyle=solid;fillColor=#cdeb8b;strokeColor=#36393d;" parent="hUjVV0NGcqdqixy6RG3n-408" vertex="1">
                    <mxGeometry x="113.99999999999999" y="133" width="60" height="30" as="geometry"/>
                </mxCell>
                <mxCell id="I_a6mHRPED68WXZHo2h1-1" value="&lt;font style=&quot;font-size: 12px;&quot;&gt;--stash&lt;/font&gt;" style="strokeWidth=1;html=1;shape=mxgraph.flowchart.terminator;whiteSpace=wrap;spacing=2;fontSize=12;labelBackgroundColor=none;fillStyle=solid;fillColor=#cdeb8b;strokeColor=#36393d;" parent="hUjVV0NGcqdqixy6RG3n-408" vertex="1">
                    <mxGeometry x="113.99999999999989" y="165" width="60" height="30" as="geometry"/>
                </mxCell>
                <mxCell id="I_a6mHRPED68WXZHo2h1-5" value="" style="edgeStyle=orthogonalEdgeStyle;rounded=0;orthogonalLoop=1;jettySize=auto;html=1;entryX=0.504;entryY=0.026;entryDx=0;entryDy=0;entryPerimeter=0;" parent="hUjVV0NGcqdqixy6RG3n-408" source="hUjVV0NGcqdqixy6RG3n-410" target="I_a6mHRPED68WXZHo2h1-10" edge="1">
                    <mxGeometry relative="1" as="geometry">
                        <mxPoint x="234" y="274" as="targetPoint"/>
                    </mxGeometry>
                </mxCell>
                <mxCell id="I_a6mHRPED68WXZHo2h1-7" value="Read user-defined function" style="rounded=1;whiteSpace=wrap;html=1;fontStyle=0;startSize=30;" parent="hUjVV0NGcqdqixy6RG3n-408" vertex="1">
                    <mxGeometry x="258" y="331" width="113" height="39" as="geometry"/>
                </mxCell>
                <mxCell id="I_a6mHRPED68WXZHo2h1-8" value="" style="edgeStyle=orthogonalEdgeStyle;rounded=0;orthogonalLoop=1;jettySize=auto;html=1;entryX=0.5;entryY=0;entryDx=0;entryDy=0;exitX=0.99;exitY=0.505;exitDx=0;exitDy=0;exitPerimeter=0;strokeColor=#FF5C33;" parent="hUjVV0NGcqdqixy6RG3n-408" source="I_a6mHRPED68WXZHo2h1-10" target="I_a6mHRPED68WXZHo2h1-7" edge="1">
                    <mxGeometry relative="1" as="geometry"/>
                </mxCell>
                <mxCell id="I_a6mHRPED68WXZHo2h1-9" value="" style="edgeStyle=orthogonalEdgeStyle;rounded=0;orthogonalLoop=1;jettySize=auto;html=1;entryX=0.25;entryY=0;entryDx=0;entryDy=0;exitX=0.001;exitY=0.495;exitDx=0;exitDy=0;exitPerimeter=0;strokeColor=#00CC00;" parent="hUjVV0NGcqdqixy6RG3n-408" source="I_a6mHRPED68WXZHo2h1-10" target="I_a6mHRPED68WXZHo2h1-12" edge="1">
                    <mxGeometry relative="1" as="geometry">
                        <mxPoint x="30" y="276" as="targetPoint"/>
                    </mxGeometry>
                </mxCell>
                <mxCell id="I_a6mHRPED68WXZHo2h1-10" value="--netcdf" style="html=1;whiteSpace=wrap;aspect=fixed;shape=isoRectangle;fillColor=#ffcc99;strokeColor=#36393d;" parent="hUjVV0NGcqdqixy6RG3n-408" vertex="1">
                    <mxGeometry x="145" y="276" width="100" height="60" as="geometry"/>
                </mxCell>
                <mxCell id="I_a6mHRPED68WXZHo2h1-12" value="Get and check netCDF path" style="rounded=1;whiteSpace=wrap;html=1;fontStyle=0;startSize=30;" parent="hUjVV0NGcqdqixy6RG3n-408" vertex="1">
                    <mxGeometry x="45" y="331" width="110" height="40" as="geometry"/>
                </mxCell>
                <mxCell id="I_a6mHRPED68WXZHo2h1-17" value="" style="edgeStyle=orthogonalEdgeStyle;rounded=0;orthogonalLoop=1;jettySize=auto;html=1;exitX=0.5;exitY=0;exitDx=0;exitDy=0;exitPerimeter=0;entryX=0.25;entryY=1;entryDx=0;entryDy=0;" parent="hUjVV0NGcqdqixy6RG3n-408" source="I_a6mHRPED68WXZHo2h1-13" target="I_a6mHRPED68WXZHo2h1-12" edge="1">
                    <mxGeometry relative="1" as="geometry">
                        <mxPoint x="164" y="434" as="targetPoint"/>
                        <Array as="points">
                            <mxPoint x="72" y="371"/>
                        </Array>
                    </mxGeometry>
                </mxCell>
                <mxCell id="I_a6mHRPED68WXZHo2h1-13" value="--netcdf" style="strokeWidth=1;html=1;shape=mxgraph.flowchart.terminator;whiteSpace=wrap;spacing=2;fontSize=12;labelBackgroundColor=none;fillStyle=solid;fillColor=#cdeb8b;strokeColor=#36393d;" parent="hUjVV0NGcqdqixy6RG3n-408" vertex="1">
                    <mxGeometry x="41.999999999999886" y="391" width="60" height="30" as="geometry"/>
                </mxCell>
                <mxCell id="I_a6mHRPED68WXZHo2h1-15" value="" style="edgeStyle=orthogonalEdgeStyle;rounded=0;orthogonalLoop=1;jettySize=auto;html=1;entryX=0.687;entryY=0.991;entryDx=0;entryDy=0;entryPerimeter=0;" parent="hUjVV0NGcqdqixy6RG3n-408" source="I_a6mHRPED68WXZHo2h1-16" target="I_a6mHRPED68WXZHo2h1-7" edge="1">
                    <mxGeometry relative="1" as="geometry">
                        <mxPoint x="284" y="440" as="targetPoint"/>
                    </mxGeometry>
                </mxCell>
                <mxCell id="I_a6mHRPED68WXZHo2h1-16" value="--ufunc" style="strokeWidth=1;html=1;shape=mxgraph.flowchart.terminator;whiteSpace=wrap;spacing=2;fontSize=12;labelBackgroundColor=none;fillStyle=solid;fillColor=#cdeb8b;strokeColor=#36393d;" parent="hUjVV0NGcqdqixy6RG3n-408" vertex="1">
                    <mxGeometry x="305.9999999999999" y="398" width="60" height="30" as="geometry"/>
                </mxCell>
                <mxCell id="I_a6mHRPED68WXZHo2h1-69" value="" style="endArrow=classic;html=1;rounded=0;exitX=1;exitY=0.5;exitDx=0;exitDy=0;exitPerimeter=0;entryX=0;entryY=0.25;entryDx=0;entryDy=0;" parent="hUjVV0NGcqdqixy6RG3n-408" source="hUjVV0NGcqdqixy6RG3n-413" target="hUjVV0NGcqdqixy6RG3n-409" edge="1">
                    <mxGeometry width="50" height="50" relative="1" as="geometry">
                        <mxPoint x="184" y="214" as="sourcePoint"/>
                        <mxPoint x="234" y="164" as="targetPoint"/>
                    </mxGeometry>
                </mxCell>
                <mxCell id="I_a6mHRPED68WXZHo2h1-70" value="" style="endArrow=classic;html=1;rounded=0;exitX=1;exitY=0.5;exitDx=0;exitDy=0;exitPerimeter=0;entryX=0;entryY=0.75;entryDx=0;entryDy=0;" parent="hUjVV0NGcqdqixy6RG3n-408" source="I_a6mHRPED68WXZHo2h1-1" target="hUjVV0NGcqdqixy6RG3n-409" edge="1">
                    <mxGeometry width="50" height="50" relative="1" as="geometry">
                        <mxPoint x="144" y="159" as="sourcePoint"/>
                        <mxPoint x="211" y="164" as="targetPoint"/>
                    </mxGeometry>
                </mxCell>
                <mxCell id="I_a6mHRPED68WXZHo2h1-105" value="&lt;span style=&quot;color: rgb(0, 0, 0); font-family: Helvetica; font-size: 12px; font-style: normal; font-variant-ligatures: normal; font-variant-caps: normal; font-weight: 400; letter-spacing: normal; orphans: 2; text-align: center; text-indent: 0px; text-transform: none; widows: 2; word-spacing: 0px; -webkit-text-stroke-width: 0px; white-space: normal; background-color: rgb(251, 251, 251); text-decoration-thickness: initial; text-decoration-style: initial; text-decoration-color: initial; display: inline !important; float: none;&quot;&gt;Read netCDF&lt;/span&gt;" style="rounded=1;whiteSpace=wrap;html=1;fontStyle=0;startSize=30;" parent="hUjVV0NGcqdqixy6RG3n-408" vertex="1">
                    <mxGeometry x="113" y="422" width="100" height="30" as="geometry"/>
                </mxCell>
                <mxCell id="I_a6mHRPED68WXZHo2h1-106" value="" style="edgeStyle=orthogonalEdgeStyle;rounded=0;orthogonalLoop=1;jettySize=auto;html=1;entryX=0.5;entryY=0;entryDx=0;entryDy=0;" parent="hUjVV0NGcqdqixy6RG3n-408" source="I_a6mHRPED68WXZHo2h1-12" target="I_a6mHRPED68WXZHo2h1-105" edge="1">
                    <mxGeometry relative="1" as="geometry">
                        <Array as="points">
                            <mxPoint x="114" y="397"/>
                            <mxPoint x="164" y="397"/>
                            <mxPoint x="164" y="422"/>
                        </Array>
                    </mxGeometry>
                </mxCell>
                <mxCell id="I_a6mHRPED68WXZHo2h1-110" value="--input" style="strokeWidth=1;html=1;shape=mxgraph.flowchart.terminator;whiteSpace=wrap;spacing=2;fontSize=12;labelBackgroundColor=none;fillStyle=solid;fillColor=#cdeb8b;strokeColor=#36393d;" parent="hUjVV0NGcqdqixy6RG3n-408" vertex="1">
                    <mxGeometry x="114" y="10" width="60" height="30" as="geometry"/>
                </mxCell>
                <mxCell id="I_a6mHRPED68WXZHo2h1-113" value="--output" style="strokeWidth=1;html=1;shape=mxgraph.flowchart.terminator;whiteSpace=wrap;spacing=2;fontSize=12;labelBackgroundColor=none;fillStyle=solid;fillColor=#cdeb8b;strokeColor=#36393d;" parent="hUjVV0NGcqdqixy6RG3n-408" vertex="1">
                    <mxGeometry x="114" y="74.5" width="60" height="30" as="geometry"/>
                </mxCell>
                <mxCell id="I_a6mHRPED68WXZHo2h1-114" value="" style="edgeStyle=orthogonalEdgeStyle;rounded=0;orthogonalLoop=1;jettySize=auto;html=1;" parent="hUjVV0NGcqdqixy6RG3n-408" source="I_a6mHRPED68WXZHo2h1-113" target="I_a6mHRPED68WXZHo2h1-112" edge="1">
                    <mxGeometry relative="1" as="geometry"/>
                </mxCell>
                <mxCell id="I_a6mHRPED68WXZHo2h1-115" value="" style="edgeStyle=orthogonalEdgeStyle;rounded=0;orthogonalLoop=1;jettySize=auto;html=1;entryX=0.543;entryY=-0.018;entryDx=0;entryDy=0;entryPerimeter=0;" parent="hUjVV0NGcqdqixy6RG3n-408" source="I_a6mHRPED68WXZHo2h1-112" target="hUjVV0NGcqdqixy6RG3n-409" edge="1">
                    <mxGeometry relative="1" as="geometry"/>
                </mxCell>
                <mxCell id="I_a6mHRPED68WXZHo2h1-112" value="Get and check&lt;div&gt;output path&lt;/div&gt;" style="rounded=1;whiteSpace=wrap;html=1;fontStyle=0;startSize=30;" parent="hUjVV0NGcqdqixy6RG3n-408" vertex="1">
                    <mxGeometry x="214.41999999999996" y="71" width="120" height="37.5" as="geometry"/>
                </mxCell>
                <mxCell id="I_a6mHRPED68WXZHo2h1-109" value="Get and check&lt;div&gt;input path&lt;/div&gt;" style="rounded=1;whiteSpace=wrap;html=1;fontStyle=0;startSize=30;" parent="hUjVV0NGcqdqixy6RG3n-408" vertex="1">
                    <mxGeometry x="214.41999999999996" y="6.5" width="120" height="37.5" as="geometry"/>
                </mxCell>
                <mxCell id="I_a6mHRPED68WXZHo2h1-111" value="" style="edgeStyle=orthogonalEdgeStyle;rounded=0;orthogonalLoop=1;jettySize=auto;html=1;" parent="hUjVV0NGcqdqixy6RG3n-408" source="I_a6mHRPED68WXZHo2h1-110" target="I_a6mHRPED68WXZHo2h1-109" edge="1">
                    <mxGeometry relative="1" as="geometry"/>
                </mxCell>
                <mxCell id="I_a6mHRPED68WXZHo2h1-108" value="" style="edgeStyle=orthogonalEdgeStyle;rounded=0;orthogonalLoop=1;jettySize=auto;html=1;" parent="hUjVV0NGcqdqixy6RG3n-408" source="I_a6mHRPED68WXZHo2h1-109" target="I_a6mHRPED68WXZHo2h1-112" edge="1">
                    <mxGeometry relative="1" as="geometry"/>
                </mxCell>
                <mxCell id="hUjVV0NGcqdqixy6RG3n-416" value="Modify UM data" style="swimlane;startSize=20;horizontal=0;html=1;" parent="hUjVV0NGcqdqixy6RG3n-388" vertex="1">
                    <mxGeometry y="700" width="453" height="1380" as="geometry">
                        <mxRectangle y="700" width="373" height="30" as="alternateBounds"/>
                    </mxGeometry>
                </mxCell>
                <mxCell id="YqQrQE35AScaJ1yDhJGN-9" value="" style="endArrow=classic;html=1;rounded=0;entryX=0.029;entryY=0.025;entryDx=0;entryDy=0;entryPerimeter=0;exitX=0.89;exitY=0.89;exitDx=0;exitDy=0;exitPerimeter=0;" parent="hUjVV0NGcqdqixy6RG3n-416" source="YqQrQE35AScaJ1yDhJGN-5" target="YqQrQE35AScaJ1yDhJGN-1" edge="1">
                    <mxGeometry width="50" height="50" relative="1" as="geometry">
                        <mxPoint x="113" y="80" as="sourcePoint"/>
                        <mxPoint x="136" y="80" as="targetPoint"/>
                    </mxGeometry>
                </mxCell>
                <mxCell id="YqQrQE35AScaJ1yDhJGN-10" value="" style="endArrow=classic;html=1;rounded=0;entryX=0;entryY=0.25;entryDx=0;entryDy=0;exitX=1;exitY=0.5;exitDx=0;exitDy=0;exitPerimeter=0;" parent="hUjVV0NGcqdqixy6RG3n-416" source="YqQrQE35AScaJ1yDhJGN-6" target="YqQrQE35AScaJ1yDhJGN-1" edge="1">
                    <mxGeometry width="50" height="50" relative="1" as="geometry">
                        <mxPoint x="123" y="93" as="sourcePoint"/>
                        <mxPoint x="132" y="108" as="targetPoint"/>
                    </mxGeometry>
                </mxCell>
                <mxCell id="YqQrQE35AScaJ1yDhJGN-11" value="" style="endArrow=classic;html=1;rounded=0;entryX=0;entryY=0.75;entryDx=0;entryDy=0;exitX=1;exitY=0.5;exitDx=0;exitDy=0;exitPerimeter=0;" parent="hUjVV0NGcqdqixy6RG3n-416" source="YqQrQE35AScaJ1yDhJGN-7" target="YqQrQE35AScaJ1yDhJGN-1" edge="1">
                    <mxGeometry width="50" height="50" relative="1" as="geometry">
                        <mxPoint x="101" y="113" as="sourcePoint"/>
                        <mxPoint x="123" y="117" as="targetPoint"/>
                    </mxGeometry>
                </mxCell>
                <mxCell id="YqQrQE35AScaJ1yDhJGN-12" value="" style="endArrow=classic;html=1;rounded=0;entryX=0.074;entryY=1.004;entryDx=0;entryDy=0;entryPerimeter=0;exitX=0.89;exitY=0.11;exitDx=0;exitDy=0;exitPerimeter=0;" parent="hUjVV0NGcqdqixy6RG3n-416" source="YqQrQE35AScaJ1yDhJGN-8" target="YqQrQE35AScaJ1yDhJGN-1" edge="1">
                    <mxGeometry width="50" height="50" relative="1" as="geometry">
                        <mxPoint x="119" y="90" as="sourcePoint"/>
                        <mxPoint x="132" y="108" as="targetPoint"/>
                    </mxGeometry>
                </mxCell>
                <mxCell id="I_a6mHRPED68WXZHo2h1-4" value="&lt;span style=&quot;color: rgb(0, 0, 0); font-family: Helvetica; font-size: 12px; font-style: normal; font-variant-ligatures: normal; font-variant-caps: normal; font-weight: 400; letter-spacing: normal; orphans: 2; text-align: center; text-indent: 0px; text-transform: none; widows: 2; word-spacing: 0px; -webkit-text-stroke-width: 0px; white-space: normal; background-color: rgb(251, 251, 251); text-decoration-thickness: initial; text-decoration-style: initial; text-decoration-color: initial; display: inline !important; float: none;&quot;&gt;Check variables consistency&lt;/span&gt;" style="rounded=1;whiteSpace=wrap;html=1;fontStyle=0;startSize=30;" parent="hUjVV0NGcqdqixy6RG3n-416" vertex="1">
                    <mxGeometry x="113" y="15" width="100" height="30" as="geometry"/>
                </mxCell>
                <mxCell id="I_a6mHRPED68WXZHo2h1-146" value="" style="edgeStyle=orthogonalEdgeStyle;rounded=0;orthogonalLoop=1;jettySize=auto;html=1;" parent="hUjVV0NGcqdqixy6RG3n-416" source="I_a6mHRPED68WXZHo2h1-116" target="I_a6mHRPED68WXZHo2h1-126" edge="1">
                    <mxGeometry relative="1" as="geometry"/>
                </mxCell>
                <mxCell id="I_a6mHRPED68WXZHo2h1-116" value="Create copy of UM file" style="rounded=1;whiteSpace=wrap;html=1;fontStyle=0;startSize=30;" parent="hUjVV0NGcqdqixy6RG3n-416" vertex="1">
                    <mxGeometry x="155" y="175" width="100" height="40" as="geometry"/>
                </mxCell>
                <mxCell id="I_a6mHRPED68WXZHo2h1-124" value="" style="edgeStyle=orthogonalEdgeStyle;rounded=0;orthogonalLoop=1;jettySize=auto;html=1;entryX=0.75;entryY=0;entryDx=0;entryDy=0;exitX=0.99;exitY=0.505;exitDx=0;exitDy=0;exitPerimeter=0;strokeColor=#FF5C33;" parent="hUjVV0NGcqdqixy6RG3n-416" source="I_a6mHRPED68WXZHo2h1-126" target="I_a6mHRPED68WXZHo2h1-137" edge="1">
                    <mxGeometry relative="1" as="geometry">
                        <mxPoint x="318" y="299" as="targetPoint"/>
                        <Array as="points">
                            <mxPoint x="314" y="274"/>
                            <mxPoint x="314" y="430"/>
                            <mxPoint x="240" y="430"/>
                        </Array>
                    </mxGeometry>
                </mxCell>
                <mxCell id="I_a6mHRPED68WXZHo2h1-125" value="" style="edgeStyle=orthogonalEdgeStyle;rounded=0;orthogonalLoop=1;jettySize=auto;html=1;entryX=0.25;entryY=0;entryDx=0;entryDy=0;exitX=0.001;exitY=0.495;exitDx=0;exitDy=0;exitPerimeter=0;strokeColor=#00CC00;" parent="hUjVV0NGcqdqixy6RG3n-416" source="I_a6mHRPED68WXZHo2h1-126" target="I_a6mHRPED68WXZHo2h1-127" edge="1">
                    <mxGeometry relative="1" as="geometry">
                        <mxPoint x="40" y="244" as="targetPoint"/>
                    </mxGeometry>
                </mxCell>
                <mxCell id="I_a6mHRPED68WXZHo2h1-126" value="--stash" style="html=1;whiteSpace=wrap;aspect=fixed;shape=isoRectangle;fillColor=#ffcc99;strokeColor=#36393d;" parent="hUjVV0NGcqdqixy6RG3n-416" vertex="1">
                    <mxGeometry x="155" y="244" width="100" height="60" as="geometry"/>
                </mxCell>
                <mxCell id="I_a6mHRPED68WXZHo2h1-131" value="" style="edgeStyle=orthogonalEdgeStyle;rounded=0;orthogonalLoop=1;jettySize=auto;html=1;" parent="hUjVV0NGcqdqixy6RG3n-416" source="I_a6mHRPED68WXZHo2h1-127" target="I_a6mHRPED68WXZHo2h1-130" edge="1">
                    <mxGeometry relative="1" as="geometry"/>
                </mxCell>
                <mxCell id="I_a6mHRPED68WXZHo2h1-127" value="Get list of UM file stash codes" style="rounded=1;whiteSpace=wrap;html=1;fontStyle=0;startSize=30;" parent="hUjVV0NGcqdqixy6RG3n-416" vertex="1">
                    <mxGeometry x="55" y="299" width="110" height="40" as="geometry"/>
                </mxCell>
                <mxCell id="I_a6mHRPED68WXZHo2h1-132" value="" style="edgeStyle=orthogonalEdgeStyle;rounded=0;orthogonalLoop=1;jettySize=auto;html=1;exitX=0.5;exitY=1;exitDx=0;exitDy=0;entryX=0.25;entryY=0;entryDx=0;entryDy=0;" parent="hUjVV0NGcqdqixy6RG3n-416" source="I_a6mHRPED68WXZHo2h1-130" target="I_a6mHRPED68WXZHo2h1-137" edge="1">
                    <mxGeometry relative="1" as="geometry">
                        <mxPoint x="110" y="484" as="targetPoint"/>
                    </mxGeometry>
                </mxCell>
                <mxCell id="I_a6mHRPED68WXZHo2h1-130" value="Get indices of UM variables" style="rounded=1;whiteSpace=wrap;html=1;fontStyle=0;startSize=30;" parent="hUjVV0NGcqdqixy6RG3n-416" vertex="1">
                    <mxGeometry x="55" y="367" width="110" height="40" as="geometry"/>
                </mxCell>
                <mxCell id="I_a6mHRPED68WXZHo2h1-135" value="--stash" style="strokeWidth=1;html=1;shape=mxgraph.flowchart.terminator;whiteSpace=wrap;spacing=2;fontSize=12;labelBackgroundColor=none;fillStyle=solid;fillColor=#cdeb8b;strokeColor=#36393d;" parent="hUjVV0NGcqdqixy6RG3n-416" vertex="1">
                    <mxGeometry x="191" y="372" width="60" height="30" as="geometry"/>
                </mxCell>
                <mxCell id="I_a6mHRPED68WXZHo2h1-136" value="" style="endArrow=classic;html=1;rounded=0;exitX=0;exitY=0.5;exitDx=0;exitDy=0;exitPerimeter=0;entryX=1;entryY=0.5;entryDx=0;entryDy=0;" parent="hUjVV0NGcqdqixy6RG3n-416" source="I_a6mHRPED68WXZHo2h1-135" target="I_a6mHRPED68WXZHo2h1-130" edge="1">
                    <mxGeometry width="50" height="50" relative="1" as="geometry">
                        <mxPoint x="265" y="386" as="sourcePoint"/>
                        <mxPoint x="261" y="376" as="targetPoint"/>
                    </mxGeometry>
                </mxCell>
                <mxCell id="I_a6mHRPED68WXZHo2h1-143" value="" style="edgeStyle=orthogonalEdgeStyle;rounded=0;orthogonalLoop=1;jettySize=auto;html=1;" parent="hUjVV0NGcqdqixy6RG3n-416" source="I_a6mHRPED68WXZHo2h1-137" target="I_a6mHRPED68WXZHo2h1-141" edge="1">
                    <mxGeometry relative="1" as="geometry"/>
                </mxCell>
                <mxCell id="I_a6mHRPED68WXZHo2h1-137" value="Get UM file data" style="rounded=1;whiteSpace=wrap;html=1;fontStyle=0;startSize=30;" parent="hUjVV0NGcqdqixy6RG3n-416" vertex="1">
                    <mxGeometry x="165" y="454" width="100" height="40" as="geometry"/>
                </mxCell>
                <mxCell id="I_a6mHRPED68WXZHo2h1-142" value="" style="rounded=1;whiteSpace=wrap;html=1;fontStyle=0;startSize=30;" parent="hUjVV0NGcqdqixy6RG3n-416" vertex="1">
                    <mxGeometry x="58.5" y="589" width="110" height="40" as="geometry"/>
                </mxCell>
                <mxCell id="I_a6mHRPED68WXZHo2h1-140" value="" style="edgeStyle=orthogonalEdgeStyle;rounded=0;orthogonalLoop=1;jettySize=auto;html=1;entryX=0.25;entryY=0;entryDx=0;entryDy=0;exitX=0.001;exitY=0.495;exitDx=0;exitDy=0;exitPerimeter=0;strokeColor=#00CC00;" parent="hUjVV0NGcqdqixy6RG3n-416" source="I_a6mHRPED68WXZHo2h1-141" target="I_a6mHRPED68WXZHo2h1-142" edge="1">
                    <mxGeometry relative="1" as="geometry">
                        <mxPoint x="43.5" y="534" as="targetPoint"/>
                    </mxGeometry>
                </mxCell>
                <mxCell id="I_a6mHRPED68WXZHo2h1-141" value="--netcdf" style="html=1;whiteSpace=wrap;aspect=fixed;shape=isoRectangle;fillColor=#ffcc99;strokeColor=#36393d;" parent="hUjVV0NGcqdqixy6RG3n-416" vertex="1">
                    <mxGeometry x="164.5" y="524" width="100" height="60" as="geometry"/>
                </mxCell>
                <mxCell id="I_a6mHRPED68WXZHo2h1-139" value="" style="edgeStyle=orthogonalEdgeStyle;rounded=0;orthogonalLoop=1;jettySize=auto;html=1;entryX=0.5;entryY=0;entryDx=0;entryDy=0;exitX=0.99;exitY=0.505;exitDx=0;exitDy=0;exitPerimeter=0;strokeColor=#FF5C33;" parent="hUjVV0NGcqdqixy6RG3n-416" source="I_a6mHRPED68WXZHo2h1-141" target="I_a6mHRPED68WXZHo2h1-138" edge="1">
                    <mxGeometry relative="1" as="geometry"/>
                </mxCell>
                <mxCell id="I_a6mHRPED68WXZHo2h1-138" value="Change UM data using user-defined function" style="rounded=1;whiteSpace=wrap;html=1;fontStyle=0;startSize=30;" parent="hUjVV0NGcqdqixy6RG3n-416" vertex="1">
                    <mxGeometry x="251" y="589" width="120.5" height="51" as="geometry"/>
                </mxCell>
                <mxCell id="I_a6mHRPED68WXZHo2h1-144" value="" style="endArrow=classic;html=1;rounded=0;exitX=1;exitY=0.5;exitDx=0;exitDy=0;exitPerimeter=0;entryX=0;entryY=0.5;entryDx=0;entryDy=0;" parent="hUjVV0NGcqdqixy6RG3n-416" source="I_a6mHRPED68WXZHo2h1-145" target="I_a6mHRPED68WXZHo2h1-4" edge="1">
                    <mxGeometry width="50" height="50" relative="1" as="geometry">
                        <mxPoint x="94" y="30" as="sourcePoint"/>
                        <mxPoint x="138" y="45" as="targetPoint"/>
                    </mxGeometry>
                </mxCell>
                <mxCell id="I_a6mHRPED68WXZHo2h1-145" value="--stash" style="strokeWidth=1;html=1;shape=mxgraph.flowchart.terminator;whiteSpace=wrap;spacing=2;fontSize=12;labelBackgroundColor=none;fillStyle=solid;fillColor=#cdeb8b;strokeColor=#36393d;" parent="hUjVV0NGcqdqixy6RG3n-416" vertex="1">
                    <mxGeometry x="30" y="15" width="60" height="30" as="geometry"/>
                </mxCell>
                <mxCell id="YqQrQE35AScaJ1yDhJGN-2" value="" style="edgeStyle=orthogonalEdgeStyle;rounded=0;orthogonalLoop=1;jettySize=auto;html=1;entryX=0.5;entryY=0;entryDx=0;entryDy=0;exitX=0.5;exitY=1;exitDx=0;exitDy=0;" parent="hUjVV0NGcqdqixy6RG3n-416" source="I_a6mHRPED68WXZHo2h1-4" target="YqQrQE35AScaJ1yDhJGN-1" edge="1">
                    <mxGeometry relative="1" as="geometry">
                        <mxPoint x="709" y="1005" as="targetPoint"/>
                        <Array as="points"/>
                        <mxPoint x="680" y="875" as="sourcePoint"/>
                    </mxGeometry>
                </mxCell>
                <mxCell id="YqQrQE35AScaJ1yDhJGN-3" value="" style="edgeStyle=orthogonalEdgeStyle;rounded=0;orthogonalLoop=1;jettySize=auto;html=1;entryX=0.25;entryY=0;entryDx=0;entryDy=0;" parent="hUjVV0NGcqdqixy6RG3n-416" source="YqQrQE35AScaJ1yDhJGN-1" target="I_a6mHRPED68WXZHo2h1-116" edge="1">
                    <mxGeometry relative="1" as="geometry"/>
                </mxCell>
                <mxCell id="YqQrQE35AScaJ1yDhJGN-1" value="&lt;span style=&quot;color: rgb(0, 0, 0); font-family: Helvetica; font-size: 12px; font-style: normal; font-variant-ligatures: normal; font-variant-caps: normal; font-weight: 400; letter-spacing: normal; orphans: 2; text-align: center; text-indent: 0px; text-transform: none; widows: 2; word-spacing: 0px; -webkit-text-stroke-width: 0px; white-space: normal; background-color: rgb(251, 251, 251); text-decoration-thickness: initial; text-decoration-style: initial; text-decoration-color: initial; display: inline !important; float: none;&quot;&gt;Check coordinates consistency&lt;/span&gt;" style="rounded=1;whiteSpace=wrap;html=1;fontStyle=0;startSize=30;" parent="hUjVV0NGcqdqixy6RG3n-416" vertex="1">
                    <mxGeometry x="113" y="85" width="100" height="51" as="geometry"/>
                </mxCell>
                <mxCell id="YqQrQE35AScaJ1yDhJGN-5" value="--latitude" style="strokeWidth=1;html=1;shape=mxgraph.flowchart.terminator;whiteSpace=wrap;spacing=2;fontSize=12;labelBackgroundColor=none;fillStyle=solid;fillColor=#cdeb8b;strokeColor=#36393d;" parent="hUjVV0NGcqdqixy6RG3n-416" vertex="1">
                    <mxGeometry x="52.5" y="50" width="60" height="30" as="geometry"/>
                </mxCell>
                <mxCell id="YqQrQE35AScaJ1yDhJGN-6" value="&lt;font style=&quot;font-size: 11px;&quot;&gt;--longitude&lt;/font&gt;" style="strokeWidth=1;html=1;shape=mxgraph.flowchart.terminator;whiteSpace=wrap;spacing=2;fontSize=12;labelBackgroundColor=none;fillStyle=solid;fillColor=#cdeb8b;strokeColor=#36393d;" parent="hUjVV0NGcqdqixy6RG3n-416" vertex="1">
                    <mxGeometry x="28" y="82" width="60" height="30" as="geometry"/>
                </mxCell>
                <mxCell id="YqQrQE35AScaJ1yDhJGN-7" value="&lt;font style=&quot;font-size: 12px;&quot;&gt;--level&lt;/font&gt;" style="strokeWidth=1;html=1;shape=mxgraph.flowchart.terminator;whiteSpace=wrap;spacing=2;fontSize=12;labelBackgroundColor=none;fillStyle=solid;fillColor=#cdeb8b;strokeColor=#36393d;" parent="hUjVV0NGcqdqixy6RG3n-416" vertex="1">
                    <mxGeometry x="28" y="115" width="60" height="30" as="geometry"/>
                </mxCell>
                <mxCell id="YqQrQE35AScaJ1yDhJGN-8" value="--time" style="strokeWidth=1;html=1;shape=mxgraph.flowchart.terminator;whiteSpace=wrap;spacing=2;fontSize=12;labelBackgroundColor=none;fillStyle=solid;fillColor=#cdeb8b;strokeColor=#36393d;" parent="hUjVV0NGcqdqixy6RG3n-416" vertex="1">
                    <mxGeometry x="51.5" y="147" width="60" height="30" as="geometry"/>
                </mxCell>
                <mxCell id="hUjVV0NGcqdqixy6RG3n-427" value="Write UM output" style="swimlane;startSize=20;horizontal=0;html=1;" parent="hUjVV0NGcqdqixy6RG3n-388" vertex="1">
                    <mxGeometry y="2080" width="453" height="70" as="geometry">
                        <mxRectangle y="1020" width="373" height="30" as="alternateBounds"/>
                    </mxGeometry>
                </mxCell>
                <mxCell id="I_a6mHRPED68WXZHo2h1-71" value="Write modified UM file" style="rounded=1;whiteSpace=wrap;html=1;" parent="hUjVV0NGcqdqixy6RG3n-427" vertex="1">
                    <mxGeometry x="175" y="18.009999999999998" width="111" height="44.99" as="geometry"/>
                </mxCell>
                <mxCell id="I_a6mHRPED68WXZHo2h1-26" value="" style="edgeStyle=orthogonalEdgeStyle;rounded=0;orthogonalLoop=1;jettySize=auto;html=1;entryX=0.75;entryY=0;entryDx=0;entryDy=0;exitX=0.25;exitY=1;exitDx=0;exitDy=0;" parent="hUjVV0NGcqdqixy6RG3n-388" source="I_a6mHRPED68WXZHo2h1-7" target="I_a6mHRPED68WXZHo2h1-116" edge="1">
                    <mxGeometry relative="1" as="geometry">
                        <mxPoint x="254" y="630" as="sourcePoint"/>
                        <mxPoint x="234" y="789.76" as="targetPoint"/>
                        <Array as="points">
                            <mxPoint x="283" y="630"/>
                            <mxPoint x="230" y="630"/>
                        </Array>
                    </mxGeometry>
                </mxCell>
                <mxCell id="I_a6mHRPED68WXZHo2h1-107" value="" style="edgeStyle=orthogonalEdgeStyle;rounded=0;orthogonalLoop=1;jettySize=auto;html=1;entryX=0.5;entryY=0;entryDx=0;entryDy=0;" parent="hUjVV0NGcqdqixy6RG3n-388" source="I_a6mHRPED68WXZHo2h1-105" target="I_a6mHRPED68WXZHo2h1-4" edge="1">
                    <mxGeometry relative="1" as="geometry"/>
                </mxCell>
                <mxCell id="I_a6mHRPED68WXZHo2h1-148" value="" style="edgeStyle=orthogonalEdgeStyle;rounded=0;orthogonalLoop=1;jettySize=auto;html=1;entryX=0.5;entryY=0;entryDx=0;entryDy=0;" parent="hUjVV0NGcqdqixy6RG3n-388" source="I_a6mHRPED68WXZHo2h1-138" target="I_a6mHRPED68WXZHo2h1-71" edge="1">
                    <mxGeometry relative="1" as="geometry"/>
                </mxCell>
                <mxCell id="I_a6mHRPED68WXZHo2h1-53" value="--latitude" style="strokeWidth=1;html=1;shape=mxgraph.flowchart.terminator;whiteSpace=wrap;spacing=2;fontSize=12;labelBackgroundColor=none;fillStyle=solid;fillColor=#cdeb8b;strokeColor=#36393d;" parent="1" vertex="1">
                    <mxGeometry x="1050" y="1480" width="60" height="30" as="geometry"/>
                </mxCell>
                <mxCell id="I_a6mHRPED68WXZHo2h1-54" value="&lt;font style=&quot;font-size: 11px;&quot;&gt;--longitude&lt;/font&gt;" style="strokeWidth=1;html=1;shape=mxgraph.flowchart.terminator;whiteSpace=wrap;spacing=2;fontSize=12;labelBackgroundColor=none;fillStyle=solid;fillColor=#cdeb8b;strokeColor=#36393d;" parent="1" vertex="1">
                    <mxGeometry x="1050" y="1512" width="60" height="30" as="geometry"/>
                </mxCell>
                <mxCell id="I_a6mHRPED68WXZHo2h1-65" value="&lt;font style=&quot;font-size: 12px;&quot;&gt;--level&lt;/font&gt;" style="strokeWidth=1;html=1;shape=mxgraph.flowchart.terminator;whiteSpace=wrap;spacing=2;fontSize=12;labelBackgroundColor=none;fillStyle=solid;fillColor=#cdeb8b;strokeColor=#36393d;" parent="1" vertex="1">
                    <mxGeometry x="1050" y="1544" width="60" height="30" as="geometry"/>
                </mxCell>
                <mxCell id="I_a6mHRPED68WXZHo2h1-66" value="" style="endArrow=classic;html=1;rounded=0;exitX=1;exitY=0.5;exitDx=0;exitDy=0;exitPerimeter=0;entryX=0;entryY=0.75;entryDx=0;entryDy=0;" parent="1" source="I_a6mHRPED68WXZHo2h1-65" target="I_a6mHRPED68WXZHo2h1-19" edge="1">
                    <mxGeometry width="50" height="50" relative="1" as="geometry">
                        <mxPoint x="1120" y="1537" as="sourcePoint"/>
                        <mxPoint x="1140" y="1537" as="targetPoint"/>
                    </mxGeometry>
                </mxCell>
                <mxCell id="I_a6mHRPED68WXZHo2h1-61" value="" style="endArrow=classic;html=1;rounded=0;exitX=1;exitY=0.5;exitDx=0;exitDy=0;exitPerimeter=0;entryX=0;entryY=0.25;entryDx=0;entryDy=0;" parent="1" source="I_a6mHRPED68WXZHo2h1-53" target="I_a6mHRPED68WXZHo2h1-19" edge="1">
                    <mxGeometry width="50" height="50" relative="1" as="geometry">
                        <mxPoint x="1134" y="1527" as="sourcePoint"/>
                        <mxPoint x="1184" y="1477" as="targetPoint"/>
                    </mxGeometry>
                </mxCell>
                <mxCell id="I_a6mHRPED68WXZHo2h1-62" value="" style="endArrow=classic;html=1;rounded=0;exitX=1;exitY=0.5;exitDx=0;exitDy=0;exitPerimeter=0;entryX=0;entryY=0.5;entryDx=0;entryDy=0;" parent="1" source="I_a6mHRPED68WXZHo2h1-54" target="I_a6mHRPED68WXZHo2h1-19" edge="1">
                    <mxGeometry width="50" height="50" relative="1" as="geometry">
                        <mxPoint x="1124" y="1492" as="sourcePoint"/>
                        <mxPoint x="1144" y="1521" as="targetPoint"/>
                    </mxGeometry>
                </mxCell>
                <mxCell id="I_a6mHRPED68WXZHo2h1-19" value="Modify UM&lt;div&gt;file copy&lt;/div&gt;" style="rounded=1;whiteSpace=wrap;html=1;fontStyle=0;startSize=30;" parent="1" vertex="1">
                    <mxGeometry x="1130" y="1507" width="100" height="40" as="geometry"/>
                </mxCell>
                <mxCell id="I_a6mHRPED68WXZHo2h1-55" value="--time" style="strokeWidth=1;html=1;shape=mxgraph.flowchart.terminator;whiteSpace=wrap;spacing=2;fontSize=12;labelBackgroundColor=none;fillStyle=solid;fillColor=#cdeb8b;strokeColor=#36393d;" parent="1" vertex="1">
                    <mxGeometry x="1249" y="1496" width="60" height="30" as="geometry"/>
                </mxCell>
                <mxCell id="I_a6mHRPED68WXZHo2h1-56" value="&lt;font style=&quot;font-size: 11px;&quot;&gt;--nan&lt;/font&gt;" style="strokeWidth=1;html=1;shape=mxgraph.flowchart.terminator;whiteSpace=wrap;spacing=2;fontSize=12;labelBackgroundColor=none;fillStyle=solid;fillColor=#cdeb8b;strokeColor=#36393d;" parent="1" vertex="1">
                    <mxGeometry x="1250" y="1528" width="60" height="30" as="geometry"/>
                </mxCell>
                <mxCell id="I_a6mHRPED68WXZHo2h1-68" value="" style="endArrow=classic;html=1;rounded=0;exitX=0;exitY=0.5;exitDx=0;exitDy=0;exitPerimeter=0;entryX=1;entryY=0.75;entryDx=0;entryDy=0;" parent="1" source="I_a6mHRPED68WXZHo2h1-56" target="I_a6mHRPED68WXZHo2h1-19" edge="1">
                    <mxGeometry width="50" height="50" relative="1" as="geometry">
                        <mxPoint x="1130" y="1515" as="sourcePoint"/>
                        <mxPoint x="1150" y="1537" as="targetPoint"/>
                    </mxGeometry>
                </mxCell>
                <mxCell id="I_a6mHRPED68WXZHo2h1-67" value="" style="endArrow=classic;html=1;rounded=0;exitX=0;exitY=0.5;exitDx=0;exitDy=0;exitPerimeter=0;entryX=1;entryY=0.25;entryDx=0;entryDy=0;" parent="1" source="I_a6mHRPED68WXZHo2h1-55" target="I_a6mHRPED68WXZHo2h1-19" edge="1">
                    <mxGeometry width="50" height="50" relative="1" as="geometry">
                        <mxPoint x="1204" y="1526" as="sourcePoint"/>
                        <mxPoint x="1224" y="1548" as="targetPoint"/>
                    </mxGeometry>
                </mxCell>
            </root>
        </mxGraphModel>
    </diagram>
</mxfile>